<svg xmlns="http://www.w3.org/2000/svg" viewBox="0 0 4320 2160">
  <path id="ashport" data-owner="test_user_1" fill="hsla(102,65%,52%,0.55)" d="M 2328.0,784.5 L 2327.5,784.0 L 2327.0,783.5 L 2326.5,783.0 L 2326.0,782.5 L 2325.5,782.0 L 2325.5,781.0 L 2325.0,780.5 L 2324.5,780.0 L 2324.0,779.5 L 2323.5,779.0 L 2323.0,778.5 L 2322.5,778.0 L 2322.0,777.5 L 2321.5,777.0 L 2321.0,776.5 L 2320.5,776.0 L 2320.0,775.5 L 2319.5,775.0 L 2319.0,774.5 L 2318.0,774.5 L 2317.0,774.5 L 2316.0,774.5 L 2315.5,775.0 L 2315.0,775.5 L 2314.0,775.5 L 2313.5,775.0 L 2313.0,774.5 L 2312.5,774.0 L 2312.0,773.5 L 2311.5,773.0 L 2311.0,772.5 L 2310.5,772.0 L 2310.0,771.5 L 2309.5,771.0 L 2309.0,770.5 L 2308.5,770.0 L 2308.0,769.5 L 2307.5,769.0 L 2307.0,768.5 L 2306.5,768.0 L 2306.0,767.5 L 2305.5,767.0 L 2305.0,766.5 L 2304.5,766.0 L 2304.0,765.5 L 2303.5,765.0 L 2303.0,764.5 L 2302.5,764.0 L 2302.0,763.5 L 2301.5,763.0 L 2301.0,762.5 L 2300.5,762.0 L 2300.0,761.5 L 2299.5,761.0 L 2299.0,760.5 L 2298.5,760.0 L 2298.0,759.5 L 2297.5,759.0 L 2297.0,758.5 L 2296.5,758.0 L 2296.0,757.5 L 2295.5,757.0 L 2295.0,756.5 L 2294.0,756.5 L 2293.5,756.0 L 2293.0,755.5 L 2292.0,755.5 L 2291.5,755.0 L 2291.0,754.5 L 2290.0,754.5 L 2289.5,754.0 L 2289.0,753.5 L 2288.5,753.0 L 2288.0,752.5 L 2287.5,752.0 L 2287.0,751.5 L 2286.5,751.0 L 2286.0,750.5 L 2285.5,750.0 L 2285.0,749.5 L 2284.5,749.0 L 2284.0,748.5 L 2283.5,748.0 L 2283.0,747.5 L 2282.5,747.0 L 2282.0,746.5 L 2281.5,746.0 L 2281.0,745.5 L 2280.5,745.0 L 2280.0,744.5 L 2279.5,744.0 L 2279.0,743.5 L 2278.5,743.0 L 2278.0,742.5 L 2277.5,742.0 L 2277.0,741.5 L 2276.5,741.0 L 2276.0,740.5 L 2275.5,740.0 L 2275.0,739.5 L 2274.5,739.0 L 2274.0,738.5 L 2273.5,738.0 L 2273.0,737.5 L 2272.5,737.0 L 2272.0,736.5 L 2271.5,736.0 L 2271.0,735.5 L 2270.5,735.0 L 2270.0,734.5 L 2269.5,734.0 L 2269.0,733.5 L 2268.5,733.0 L 2268.0,732.5 L 2267.5,732.0 L 2267.0,731.5 L 2266.5,731.0 L 2266.0,730.5 L 2265.5,730.0 L 2265.0,729.5 L 2264.5,729.0 L 2264.0,728.5 L 2263.5,728.0 L 2263.5,727.0 L 2263.5,726.0 L 2263.0,725.5 L 2262.5,725.0 L 2262.5,724.0 L 2262.5,723.0 L 2262.5,722.0 L 2262.5,721.0 L 2262.5,720.0 L 2262.5,719.0 L 2262.5,718.0 L 2263.0,717.5 L 2263.5,717.0 L 2263.5,716.0 L 2263.5,715.0 L 2263.5,714.0 L 2263.5,713.0 L 2263.5,712.0 L 2263.5,711.0 L 2263.5,710.0 L 2263.5,709.0 L 2263.5,708.0 L 2263.0,707.5 L 2262.5,707.0 L 2262.5,706.0 L 2263.0,705.5 L 2263.5,705.0 L 2264.0,704.5 L 2264.5,704.0 L 2265.0,703.5 L 2265.5,703.0 L 2266.0,702.5 L 2266.5,702.0 L 2267.0,701.5 L 2267.5,701.0 L 2268.0,700.5 L 2268.5,700.0 L 2269.0,699.5 L 2269.5,699.0 L 2270.0,698.5 L 2270.5,698.0 L 2271.0,697.5 L 2271.5,697.0 L 2272.0,696.5 L 2272.5,696.0 L 2273.0,695.5 L 2273.5,695.0 L 2274.0,694.5 L 2274.5,694.0 L 2275.0,693.5 L 2275.5,693.0 L 2276.0,692.5 L 2276.5,692.0 L 2277.0,691.5 L 2277.5,691.0 L 2278.0,690.5 L 2278.5,690.0 L 2279.0,689.5 L 2279.5,689.0 L 2280.0,688.5 L 2280.5,688.0 L 2281.0,687.5 L 2281.5,687.0 L 2282.0,686.5 L 2282.5,686.0 L 2283.0,685.5 L 2283.5,685.0 L 2284.0,684.5 L 2284.5,684.0 L 2285.0,683.5 L 2285.5,683.0 L 2286.0,682.5 L 2286.5,682.0 L 2287.0,681.5 L 2287.5,681.0 L 2288.0,680.5 L 2288.5,680.0 L 2289.0,679.5 L 2289.5,679.0 L 2290.0,678.5 L 2290.5,678.0 L 2291.0,677.5 L 2291.5,677.0 L 2292.0,676.5 L 2292.5,676.0 L 2293.0,675.5 L 2293.5,675.0 L 2294.0,674.5 L 2294.5,674.0 L 2295.0,673.5 L 2295.5,673.0 L 2296.0,672.5 L 2296.5,672.0 L 2297.0,671.5 L 2297.5,671.0 L 2298.0,670.5 L 2298.5,670.0 L 2299.0,669.5 L 2299.5,669.0 L 2300.0,668.5 L 2300.5,668.0 L 2301.0,667.5 L 2301.5,667.0 L 2302.0,666.5 L 2302.5,666.0 L 2303.0,665.5 L 2303.5,665.0 L 2304.0,664.5 L 2304.5,664.0 L 2305.0,663.5 L 2305.5,663.0 L 2306.0,662.5 L 2306.5,662.0 L 2307.0,661.5 L 2307.5,661.0 L 2308.0,660.5 L 2308.5,660.0 L 2309.0,659.5 L 2309.5,659.0 L 2310.0,658.5 L 2310.5,658.0 L 2311.0,657.5 L 2311.5,657.0 L 2312.0,656.5 L 2312.5,656.0 L 2313.0,655.5 L 2313.5,655.0 L 2314.0,654.5 L 2314.5,655.0 L 2315.0,655.5 L 2315.5,656.0 L 2316.0,656.5 L 2316.5,657.0 L 2317.0,657.5 L 2317.5,658.0 L 2318.0,658.5 L 2318.5,659.0 L 2319.0,659.5 L 2319.5,660.0 L 2320.0,660.5 L 2320.5,661.0 L 2321.0,661.5 L 2321.5,662.0 L 2322.0,662.5 L 2322.5,663.0 L 2323.0,663.5 L 2323.5,664.0 L 2324.0,664.5 L 2324.5,665.0 L 2325.0,665.5 L 2325.5,666.0 L 2326.0,666.5 L 2326.5,667.0 L 2327.0,667.5 L 2327.5,668.0 L 2328.0,668.5 L 2328.5,669.0 L 2329.0,669.5 L 2329.5,670.0 L 2330.0,670.5 L 2330.5,671.0 L 2331.0,671.5 L 2331.5,672.0 L 2332.0,672.5 L 2332.5,673.0 L 2333.0,673.5 L 2333.5,674.0 L 2334.0,674.5 L 2334.5,675.0 L 2335.0,675.5 L 2335.5,676.0 L 2336.0,676.5 L 2336.5,677.0 L 2337.0,677.5 L 2337.5,678.0 L 2338.0,678.5 L 2338.5,679.0 L 2339.0,679.5 L 2339.5,680.0 L 2340.0,680.5 L 2340.5,681.0 L 2341.0,681.5 L 2341.5,682.0 L 2342.0,682.5 L 2342.5,683.0 L 2343.0,683.5 L 2343.5,684.0 L 2344.0,684.5 L 2344.5,685.0 L 2345.0,685.5 L 2345.5,686.0 L 2346.0,686.5 L 2346.5,687.0 L 2347.0,687.5 L 2347.5,688.0 L 2348.0,688.5 L 2348.5,689.0 L 2349.0,689.5 L 2349.5,690.0 L 2350.0,690.5 L 2350.5,691.0 L 2351.0,691.5 L 2351.5,692.0 L 2352.0,692.5 L 2352.5,693.0 L 2353.0,693.5 L 2353.5,694.0 L 2354.0,694.5 L 2354.5,695.0 L 2355.0,695.5 L 2355.5,696.0 L 2356.0,696.5 L 2356.5,697.0 L 2357.0,697.5 L 2357.5,698.0 L 2358.0,698.5 L 2358.5,699.0 L 2359.0,699.5 L 2359.5,700.0 L 2360.0,700.5 L 2360.5,701.0 L 2361.0,701.5 L 2361.5,702.0 L 2362.0,702.5 L 2362.5,703.0 L 2363.0,703.5 L 2363.5,704.0 L 2364.0,704.5 L 2364.5,705.0 L 2365.0,705.5 L 2365.5,706.0 L 2366.0,706.5 L 2366.5,707.0 L 2367.0,707.5 L 2367.5,708.0 L 2368.0,708.5 L 2368.5,709.0 L 2369.0,709.5 L 2369.5,710.0 L 2370.0,710.5 L 2370.5,711.0 L 2371.0,711.5 L 2371.5,712.0 L 2372.0,712.5 L 2372.5,713.0 L 2373.0,713.5 L 2373.5,714.0 L 2374.0,714.5 L 2374.5,715.0 L 2375.0,715.5 L 2375.5,716.0 L 2376.0,716.5 L 2376.5,717.0 L 2377.0,717.5 L 2377.5,718.0 L 2378.0,718.5 L 2378.5,719.0 L 2378.5,720.0 L 2378.5,721.0 L 2378.5,722.0 L 2378.5,723.0 L 2378.5,724.0 L 2378.5,725.0 L 2378.5,726.0 L 2378.5,727.0 L 2378.5,728.0 L 2378.5,729.0 L 2378.5,730.0 L 2378.5,731.0 L 2378.5,732.0 L 2378.5,733.0 L 2378.5,734.0 L 2378.5,735.0 L 2378.0,735.5 L 2377.5,736.0 L 2377.0,736.5 L 2376.5,737.0 L 2376.0,737.5 L 2375.5,738.0 L 2375.0,738.5 L 2374.5,739.0 L 2374.0,739.5 L 2373.5,740.0 L 2373.0,740.5 L 2372.5,741.0 L 2372.0,741.5 L 2371.5,742.0 L 2371.0,742.5 L 2370.5,743.0 L 2370.0,743.5 L 2369.5,744.0 L 2369.0,744.5 L 2368.5,745.0 L 2368.0,745.5 L 2367.5,746.0 L 2367.0,746.5 L 2366.5,747.0 L 2366.0,747.5 L 2365.5,748.0 L 2365.0,748.5 L 2364.5,749.0 L 2364.0,749.5 L 2363.5,750.0 L 2363.0,750.5 L 2362.5,751.0 L 2362.0,751.5 L 2361.5,752.0 L 2361.0,752.5 L 2360.5,753.0 L 2360.0,753.5 L 2359.5,754.0 L 2359.0,754.5 L 2358.5,755.0 L 2358.0,755.5 L 2357.5,756.0 L 2357.0,756.5 L 2356.5,757.0 L 2356.0,757.5 L 2355.5,758.0 L 2355.0,758.5 L 2354.5,759.0 L 2354.0,759.5 L 2353.5,760.0 L 2353.0,760.5 L 2352.5,761.0 L 2352.0,761.5 L 2351.5,762.0 L 2351.0,762.5 L 2350.5,763.0 L 2350.0,763.5 L 2349.5,764.0 L 2349.0,764.5 L 2348.5,765.0 L 2348.0,765.5 L 2347.5,766.0 L 2347.0,766.5 L 2346.5,767.0 L 2346.0,767.5 L 2345.5,768.0 L 2345.5,769.0 L 2345.5,770.0 L 2345.0,770.5 L 2344.0,770.5 L 2343.5,770.0 L 2343.0,769.5 L 2342.0,769.5 L 2341.0,769.5 L 2340.0,769.5 L 2339.0,769.5 L 2338.5,770.0 L 2338.0,770.5 L 2337.0,770.5 L 2336.0,770.5 L 2335.0,770.5 L 2334.5,771.0 L 2334.5,772.0 L 2334.5,773.0 L 2334.5,774.0 L 2334.0,774.5 L 2333.5,775.0 L 2333.5,776.0 L 2333.0,776.5 L 2332.5,777.0 L 2332.5,778.0 L 2332.0,778.5 L 2331.5,779.0 L 2331.5,780.0 L 2331.5,781.0 L 2331.0,781.5 L 2330.5,782.0 L 2330.0,782.5 L 2329.5,783.0 L 2329.0,783.5 L 2328.5,784.0 L 2328.0,784.5 Z" />
  <path id="epstein-island-e843c1" data-owner="203550865204707328" fill="hsla(287,65%,52%,0.55)" d="M 2434.0,823.5 L 2433.0,823.5 L 2432.5,823.0 L 2432.0,822.5 L 2431.0,822.5 L 2430.5,822.0 L 2430.0,821.5 L 2429.5,821.0 L 2429.5,820.0 L 2429.0,819.5 L 2428.5,819.0 L 2428.0,818.5 L 2427.5,818.0 L 2427.5,817.0 L 2427.0,816.5 L 2426.5,816.0 L 2426.0,815.5 L 2425.5,815.0 L 2425.0,814.5 L 2424.5,814.0 L 2424.0,813.5 L 2423.5,813.0 L 2423.5,812.0 L 2423.0,811.5 L 2422.5,811.0 L 2422.0,810.5 L 2421.0,810.5 L 2420.5,810.0 L 2420.0,809.5 L 2419.0,809.5 L 2418.0,809.5 L 2417.0,809.5 L 2416.5,809.0 L 2416.0,808.5 L 2415.0,808.5 L 2414.5,808.0 L 2414.0,807.5 L 2413.5,807.0 L 2413.5,806.0 L 2413.0,805.5 L 2412.5,805.0 L 2412.0,804.5 L 2411.5,804.0 L 2411.0,803.5 L 2410.0,803.5 L 2409.5,803.0 L 2409.0,802.5 L 2408.5,802.0 L 2408.0,801.5 L 2407.0,801.5 L 2406.5,801.0 L 2406.0,800.5 L 2405.5,800.0 L 2405.0,799.5 L 2404.5,799.0 L 2404.0,798.5 L 2403.0,798.5 L 2402.5,798.0 L 2402.0,797.5 L 2401.5,797.0 L 2401.0,796.5 L 2400.5,796.0 L 2400.0,795.5 L 2399.0,795.5 L 2398.5,795.0 L 2398.0,794.5 L 2397.0,794.5 L 2396.5,794.0 L 2396.0,793.5 L 2395.0,793.5 L 2394.0,793.5 L 2393.5,793.0 L 2393.0,792.5 L 2392.0,792.5 L 2391.5,792.0 L 2391.0,791.5 L 2390.0,791.5 L 2389.0,791.5 L 2388.5,791.0 L 2388.0,790.5 L 2387.0,790.5 L 2386.5,790.0 L 2386.0,789.5 L 2385.0,789.5 L 2384.5,789.0 L 2384.0,788.5 L 2383.0,788.5 L 2382.5,788.0 L 2382.0,787.5 L 2381.0,787.5 L 2380.5,787.0 L 2380.0,786.5 L 2379.0,786.5 L 2378.5,786.0 L 2378.0,785.5 L 2377.0,785.5 L 2376.0,785.5 L 2375.5,785.0 L 2375.0,784.5 L 2374.0,784.5 L 2373.5,784.0 L 2373.0,783.5 L 2372.0,783.5 L 2371.0,783.5 L 2370.5,783.0 L 2370.0,782.5 L 2369.0,782.5 L 2368.0,782.5 L 2367.5,782.0 L 2367.0,781.5 L 2366.0,781.5 L 2365.5,781.0 L 2365.0,780.5 L 2364.5,780.0 L 2364.0,779.5 L 2363.5,779.0 L 2363.0,778.5 L 2362.0,778.5 L 2361.5,778.0 L 2361.0,777.5 L 2360.0,777.5 L 2359.5,777.0 L 2359.0,776.5 L 2358.5,776.0 L 2358.0,775.5 L 2357.5,775.0 L 2357.0,774.5 L 2356.0,774.5 L 2355.5,774.0 L 2355.0,773.5 L 2354.5,773.0 L 2354.0,772.5 L 2353.0,772.5 L 2352.5,772.0 L 2352.0,771.5 L 2351.0,771.5 L 2350.0,771.5 L 2349.5,771.0 L 2349.0,770.5 L 2348.0,770.5 L 2347.0,770.5 L 2346.0,770.5 L 2345.5,770.0 L 2345.5,769.0 L 2345.5,768.0 L 2346.0,767.5 L 2346.5,767.0 L 2347.0,766.5 L 2347.5,766.0 L 2348.0,765.5 L 2348.5,765.0 L 2349.0,764.5 L 2349.5,764.0 L 2350.0,763.5 L 2350.5,763.0 L 2351.0,762.5 L 2351.5,762.0 L 2352.0,761.5 L 2352.5,761.0 L 2353.0,760.5 L 2353.5,760.0 L 2354.0,759.5 L 2354.5,759.0 L 2355.0,758.5 L 2355.5,758.0 L 2356.0,757.5 L 2356.5,757.0 L 2357.0,756.5 L 2357.5,756.0 L 2358.0,755.5 L 2358.5,755.0 L 2359.0,754.5 L 2359.5,754.0 L 2360.0,753.5 L 2360.5,753.0 L 2361.0,752.5 L 2361.5,752.0 L 2362.0,751.5 L 2362.5,751.0 L 2363.0,750.5 L 2363.5,750.0 L 2364.0,749.5 L 2364.5,749.0 L 2365.0,748.5 L 2365.5,748.0 L 2366.0,747.5 L 2366.5,747.0 L 2367.0,746.5 L 2367.5,746.0 L 2368.0,745.5 L 2368.5,745.0 L 2369.0,744.5 L 2369.5,744.0 L 2370.0,743.5 L 2370.5,743.0 L 2371.0,742.5 L 2371.5,742.0 L 2372.0,741.5 L 2372.5,741.0 L 2373.0,740.5 L 2373.5,740.0 L 2374.0,739.5 L 2374.5,739.0 L 2375.0,738.5 L 2375.5,738.0 L 2376.0,737.5 L 2376.5,737.0 L 2377.0,736.5 L 2377.5,736.0 L 2378.0,735.5 L 2378.5,735.0 L 2378.5,734.0 L 2378.5,733.0 L 2378.5,732.0 L 2378.5,731.0 L 2378.5,730.0 L 2378.5,729.0 L 2378.5,728.0 L 2378.5,727.0 L 2378.5,726.0 L 2378.5,725.0 L 2378.5,724.0 L 2378.5,723.0 L 2378.5,722.0 L 2378.5,721.0 L 2378.5,720.0 L 2378.5,719.0 L 2379.0,718.5 L 2379.5,718.0 L 2380.0,717.5 L 2380.5,717.0 L 2381.0,716.5 L 2381.5,716.0 L 2382.0,715.5 L 2382.5,715.0 L 2383.0,714.5 L 2383.5,714.0 L 2384.0,713.5 L 2384.5,713.0 L 2385.0,712.5 L 2385.5,712.0 L 2386.0,711.5 L 2386.5,711.0 L 2387.0,710.5 L 2387.5,710.0 L 2388.0,709.5 L 2388.5,709.0 L 2389.0,708.5 L 2389.5,708.0 L 2390.0,707.5 L 2390.5,707.0 L 2391.0,706.5 L 2391.5,706.0 L 2392.0,705.5 L 2392.5,705.0 L 2393.0,704.5 L 2393.5,704.0 L 2394.0,703.5 L 2394.5,703.0 L 2395.0,702.5 L 2396.0,702.5 L 2396.5,702.0 L 2397.0,701.5 L 2398.0,701.5 L 2399.0,701.5 L 2399.5,702.0 L 2400.0,702.5 L 2401.0,702.5 L 2401.5,703.0 L 2401.5,704.0 L 2402.0,704.5 L 2402.5,705.0 L 2403.0,705.5 L 2403.5,706.0 L 2404.0,706.5 L 2404.5,707.0 L 2405.0,707.5 L 2406.0,707.5 L 2406.5,708.0 L 2407.0,708.5 L 2408.0,708.5 L 2408.5,709.0 L 2408.5,710.0 L 2409.0,710.5 L 2409.5,711.0 L 2409.5,712.0 L 2410.0,712.5 L 2410.5,713.0 L 2410.5,714.0 L 2411.0,714.5 L 2411.5,715.0 L 2412.0,715.5 L 2412.5,716.0 L 2413.0,716.5 L 2413.5,717.0 L 2414.0,717.5 L 2414.5,718.0 L 2414.5,719.0 L 2415.0,719.5 L 2415.5,720.0 L 2416.0,720.5 L 2416.5,721.0 L 2416.5,722.0 L 2416.5,723.0 L 2416.5,724.0 L 2416.5,725.0 L 2416.0,725.5 L 2415.5,726.0 L 2415.5,727.0 L 2415.5,728.0 L 2415.0,728.5 L 2414.5,729.0 L 2414.5,730.0 L 2414.5,731.0 L 2414.5,732.0 L 2415.0,732.5 L 2416.0,732.5 L 2416.5,733.0 L 2417.0,733.5 L 2418.0,733.5 L 2419.0,733.5 L 2419.5,734.0 L 2420.0,734.5 L 2421.0,734.5 L 2422.0,734.5 L 2422.5,735.0 L 2423.0,735.5 L 2424.0,735.5 L 2424.5,736.0 L 2425.0,736.5 L 2426.0,736.5 L 2427.0,736.5 L 2428.0,736.5 L 2429.0,736.5 L 2429.5,737.0 L 2430.0,737.5 L 2431.0,737.5 L 2432.0,737.5 L 2433.0,737.5 L 2434.0,737.5 L 2434.5,738.0 L 2435.0,738.5 L 2436.0,738.5 L 2436.5,739.0 L 2437.0,739.5 L 2437.5,740.0 L 2437.5,741.0 L 2437.5,742.0 L 2437.5,743.0 L 2437.5,744.0 L 2438.0,744.5 L 2438.5,745.0 L 2438.5,746.0 L 2439.0,746.5 L 2439.5,747.0 L 2439.5,748.0 L 2440.0,748.5 L 2440.5,749.0 L 2441.0,749.5 L 2441.5,750.0 L 2442.0,750.5 L 2442.5,751.0 L 2443.0,751.5 L 2443.5,752.0 L 2444.0,752.5 L 2444.5,753.0 L 2445.0,753.5 L 2445.5,754.0 L 2446.0,754.5 L 2446.5,755.0 L 2447.0,755.5 L 2447.5,756.0 L 2448.0,756.5 L 2448.5,757.0 L 2449.0,757.5 L 2449.5,758.0 L 2450.0,758.5 L 2451.0,758.5 L 2452.0,758.5 L 2452.5,758.0 L 2453.0,757.5 L 2453.5,757.0 L 2454.0,756.5 L 2454.5,756.0 L 2455.0,755.5 L 2455.5,755.0 L 2455.5,754.0 L 2456.0,753.5 L 2456.5,753.0 L 2457.0,752.5 L 2457.5,752.0 L 2457.5,751.0 L 2458.0,750.5 L 2458.5,750.0 L 2458.5,749.0 L 2459.0,748.5 L 2460.0,748.5 L 2460.5,749.0 L 2461.0,749.5 L 2461.5,750.0 L 2462.0,750.5 L 2463.0,750.5 L 2463.5,751.0 L 2464.0,751.5 L 2464.5,752.0 L 2465.0,752.5 L 2465.5,753.0 L 2466.0,753.5 L 2466.5,754.0 L 2467.0,754.5 L 2467.5,755.0 L 2468.0,755.5 L 2468.5,756.0 L 2469.0,756.5 L 2469.5,757.0 L 2470.0,757.5 L 2470.5,758.0 L 2471.0,758.5 L 2471.5,759.0 L 2472.0,759.5 L 2472.5,760.0 L 2472.5,761.0 L 2473.0,761.5 L 2473.5,762.0 L 2474.0,762.5 L 2475.0,762.5 L 2475.5,763.0 L 2476.0,763.5 L 2476.5,764.0 L 2477.0,764.5 L 2477.5,765.0 L 2478.0,765.5 L 2478.5,766.0 L 2479.0,766.5 L 2479.5,767.0 L 2480.0,767.5 L 2480.5,768.0 L 2481.0,768.5 L 2481.5,769.0 L 2482.0,769.5 L 2482.5,770.0 L 2483.0,770.5 L 2483.5,771.0 L 2484.0,771.5 L 2484.5,772.0 L 2484.0,772.5 L 2483.5,773.0 L 2483.0,773.5 L 2482.5,774.0 L 2482.0,774.5 L 2481.5,775.0 L 2481.0,775.5 L 2480.5,776.0 L 2480.0,776.5 L 2479.5,777.0 L 2479.0,777.5 L 2478.5,778.0 L 2478.0,778.5 L 2477.5,779.0 L 2477.5,780.0 L 2477.0,780.5 L 2476.5,781.0 L 2476.0,781.5 L 2475.5,782.0 L 2475.0,782.5 L 2474.5,783.0 L 2474.0,783.5 L 2473.5,784.0 L 2473.5,785.0 L 2473.0,785.5 L 2472.5,786.0 L 2472.0,786.5 L 2471.5,787.0 L 2471.0,787.5 L 2470.5,788.0 L 2470.0,788.5 L 2469.5,789.0 L 2469.0,789.5 L 2468.5,790.0 L 2468.0,790.5 L 2467.5,791.0 L 2467.0,791.5 L 2466.5,792.0 L 2466.0,792.5 L 2465.5,793.0 L 2465.0,793.5 L 2464.5,794.0 L 2464.0,794.5 L 2463.5,795.0 L 2463.0,795.5 L 2462.5,796.0 L 2462.0,796.5 L 2461.5,797.0 L 2461.0,797.5 L 2460.5,798.0 L 2460.0,798.5 L 2459.5,799.0 L 2459.0,799.5 L 2458.5,800.0 L 2458.0,800.5 L 2457.5,801.0 L 2457.0,801.5 L 2456.5,802.0 L 2456.0,802.5 L 2455.5,803.0 L 2455.0,803.5 L 2454.5,804.0 L 2454.0,804.5 L 2453.5,805.0 L 2453.0,805.5 L 2452.5,806.0 L 2452.0,806.5 L 2451.5,807.0 L 2451.0,807.5 L 2450.5,808.0 L 2450.0,808.5 L 2449.5,809.0 L 2449.0,809.5 L 2448.5,810.0 L 2448.0,810.5 L 2447.5,811.0 L 2447.0,811.5 L 2446.5,812.0 L 2446.0,812.5 L 2445.5,813.0 L 2445.0,813.5 L 2444.5,814.0 L 2444.0,814.5 L 2443.5,815.0 L 2443.0,815.5 L 2442.5,816.0 L 2442.0,816.5 L 2441.5,817.0 L 2441.0,817.5 L 2440.5,818.0 L 2440.0,818.5 L 2439.5,819.0 L 2439.0,819.5 L 2438.5,820.0 L 2438.0,820.5 L 2437.5,821.0 L 2437.0,821.5 L 2436.5,822.0 L 2436.0,822.5 L 2435.0,822.5 L 2434.5,823.0 L 2434.0,823.5 Z" />
</svg>
