<svg xmlns="http://www.w3.org/2000/svg" viewBox="0 0 4320 2160">
  <path id="ashport" data-owner="test_user_1" fill="hsla(102,65%,52%,0.55)" d="M 2328.0,784.5 L 2327.5,784.0 L 2327.0,783.5 L 2326.5,783.0 L 2326.0,782.5 L 2325.5,782.0 L 2325.5,781.0 L 2325.0,780.5 L 2324.5,780.0 L 2324.0,779.5 L 2323.5,779.0 L 2323.0,778.5 L 2322.5,778.0 L 2322.0,777.5 L 2321.5,777.0 L 2321.0,776.5 L 2320.5,776.0 L 2320.0,775.5 L 2319.5,775.0 L 2319.0,774.5 L 2318.0,774.5 L 2317.0,774.5 L 2316.0,774.5 L 2315.5,775.0 L 2315.0,775.5 L 2314.0,775.5 L 2313.5,775.0 L 2313.0,774.5 L 2312.5,774.0 L 2312.0,773.5 L 2311.5,773.0 L 2311.0,772.5 L 2310.5,772.0 L 2310.0,771.5 L 2309.5,771.0 L 2309.0,770.5 L 2308.5,770.0 L 2308.0,769.5 L 2307.5,769.0 L 2307.0,768.5 L 2306.5,768.0 L 2306.0,767.5 L 2305.5,767.0 L 2305.0,766.5 L 2304.5,766.0 L 2304.0,765.5 L 2303.5,765.0 L 2303.0,764.5 L 2302.5,764.0 L 2302.0,763.5 L 2301.5,763.0 L 2301.0,762.5 L 2300.5,762.0 L 2300.0,761.5 L 2299.5,761.0 L 2299.0,760.5 L 2298.5,760.0 L 2298.0,759.5 L 2297.5,759.0 L 2297.0,758.5 L 2296.5,758.0 L 2296.0,757.5 L 2295.5,757.0 L 2295.0,756.5 L 2294.0,756.5 L 2293.5,756.0 L 2293.0,755.5 L 2292.0,755.5 L 2291.5,755.0 L 2291.0,754.5 L 2290.0,754.5 L 2289.5,754.0 L 2289.0,753.5 L 2288.5,753.0 L 2288.0,752.5 L 2287.5,752.0 L 2287.0,751.5 L 2286.5,751.0 L 2286.0,750.5 L 2285.5,750.0 L 2285.0,749.5 L 2284.5,749.0 L 2284.0,748.5 L 2283.5,748.0 L 2283.0,747.5 L 2282.5,747.0 L 2282.0,746.5 L 2281.5,746.0 L 2281.0,745.5 L 2280.5,745.0 L 2280.0,744.5 L 2279.5,744.0 L 2279.0,743.5 L 2278.5,743.0 L 2278.0,742.5 L 2277.5,742.0 L 2277.0,741.5 L 2276.5,741.0 L 2276.0,740.5 L 2275.5,740.0 L 2275.0,739.5 L 2274.5,739.0 L 2274.0,738.5 L 2273.5,738.0 L 2273.0,737.5 L 2272.5,737.0 L 2272.0,736.5 L 2271.5,736.0 L 2271.0,735.5 L 2270.5,735.0 L 2270.0,734.5 L 2269.5,734.0 L 2269.0,733.5 L 2268.5,733.0 L 2268.0,732.5 L 2267.5,732.0 L 2267.0,731.5 L 2266.5,731.0 L 2266.0,730.5 L 2265.5,730.0 L 2265.0,729.5 L 2264.5,729.0 L 2264.0,728.5 L 2263.5,728.0 L 2263.5,727.0 L 2263.5,726.0 L 2263.0,725.5 L 2262.5,725.0 L 2262.5,724.0 L 2262.5,723.0 L 2262.5,722.0 L 2262.5,721.0 L 2262.5,720.0 L 2262.5,719.0 L 2262.5,718.0 L 2263.0,717.5 L 2263.5,717.0 L 2263.5,716.0 L 2263.5,715.0 L 2263.5,714.0 L 2263.5,713.0 L 2263.5,712.0 L 2263.5,711.0 L 2263.5,710.0 L 2263.5,709.0 L 2263.5,708.0 L 2263.0,707.5 L 2262.5,707.0 L 2262.5,706.0 L 2263.0,705.5 L 2263.5,705.0 L 2264.0,704.5 L 2264.5,704.0 L 2265.0,703.5 L 2265.5,703.0 L 2266.0,702.5 L 2266.5,702.0 L 2267.0,701.5 L 2267.5,701.0 L 2268.0,700.5 L 2268.5,700.0 L 2269.0,699.5 L 2269.5,699.0 L 2270.0,698.5 L 2270.5,698.0 L 2271.0,697.5 L 2271.5,697.0 L 2272.0,696.5 L 2272.5,696.0 L 2273.0,695.5 L 2273.5,695.0 L 2274.0,694.5 L 2274.5,694.0 L 2275.0,693.5 L 2275.5,693.0 L 2276.0,692.5 L 2276.5,692.0 L 2277.0,691.5 L 2277.5,691.0 L 2278.0,690.5 L 2278.5,690.0 L 2279.0,689.5 L 2279.5,689.0 L 2280.0,688.5 L 2280.5,688.0 L 2281.0,687.5 L 2281.5,687.0 L 2282.0,686.5 L 2282.5,686.0 L 2283.0,685.5 L 2283.5,685.0 L 2284.0,684.5 L 2284.5,684.0 L 2285.0,683.5 L 2285.5,683.0 L 2286.0,682.5 L 2286.5,682.0 L 2287.0,681.5 L 2287.5,681.0 L 2288.0,680.5 L 2288.5,680.0 L 2289.0,679.5 L 2289.5,679.0 L 2290.0,678.5 L 2290.5,678.0 L 2291.0,677.5 L 2291.5,677.0 L 2292.0,676.5 L 2292.5,676.0 L 2293.0,675.5 L 2293.5,675.0 L 2294.0,674.5 L 2294.5,674.0 L 2295.0,673.5 L 2295.5,673.0 L 2296.0,672.5 L 2296.5,672.0 L 2297.0,671.5 L 2297.5,671.0 L 2298.0,670.5 L 2298.5,670.0 L 2299.0,669.5 L 2299.5,669.0 L 2300.0,668.5 L 2300.5,668.0 L 2301.0,667.5 L 2301.5,667.0 L 2302.0,666.5 L 2302.5,666.0 L 2303.0,665.5 L 2303.5,665.0 L 2304.0,664.5 L 2304.5,664.0 L 2305.0,663.5 L 2305.5,663.0 L 2306.0,662.5 L 2306.5,662.0 L 2307.0,661.5 L 2307.5,661.0 L 2308.0,660.5 L 2308.5,660.0 L 2309.0,659.5 L 2309.5,659.0 L 2310.0,658.5 L 2310.5,658.0 L 2311.0,657.5 L 2311.5,657.0 L 2312.0,656.5 L 2312.5,656.0 L 2313.0,655.5 L 2313.5,655.0 L 2314.0,654.5 L 2314.5,655.0 L 2315.0,655.5 L 2315.5,656.0 L 2316.0,656.5 L 2316.5,657.0 L 2317.0,657.5 L 2317.5,658.0 L 2318.0,658.5 L 2318.5,659.0 L 2319.0,659.5 L 2319.5,660.0 L 2320.0,660.5 L 2320.5,661.0 L 2321.0,661.5 L 2321.5,662.0 L 2322.0,662.5 L 2322.5,663.0 L 2323.0,663.5 L 2323.5,664.0 L 2324.0,664.5 L 2324.5,665.0 L 2325.0,665.5 L 2325.5,666.0 L 2326.0,666.5 L 2326.5,667.0 L 2327.0,667.5 L 2327.5,668.0 L 2328.0,668.5 L 2328.5,669.0 L 2329.0,669.5 L 2329.5,670.0 L 2330.0,670.5 L 2330.5,671.0 L 2331.0,671.5 L 2331.5,672.0 L 2332.0,672.5 L 2332.5,673.0 L 2333.0,673.5 L 2333.5,674.0 L 2334.0,674.5 L 2334.5,675.0 L 2335.0,675.5 L 2335.5,676.0 L 2336.0,676.5 L 2336.5,677.0 L 2337.0,677.5 L 2337.5,678.0 L 2338.0,678.5 L 2338.5,679.0 L 2339.0,679.5 L 2339.5,680.0 L 2340.0,680.5 L 2340.5,681.0 L 2341.0,681.5 L 2341.5,682.0 L 2342.0,682.5 L 2342.5,683.0 L 2343.0,683.5 L 2343.5,684.0 L 2344.0,684.5 L 2344.5,685.0 L 2345.0,685.5 L 2345.5,686.0 L 2346.0,686.5 L 2346.5,687.0 L 2347.0,687.5 L 2347.5,688.0 L 2348.0,688.5 L 2348.5,689.0 L 2349.0,689.5 L 2349.5,690.0 L 2350.0,690.5 L 2350.5,691.0 L 2351.0,691.5 L 2351.5,692.0 L 2352.0,692.5 L 2352.5,693.0 L 2353.0,693.5 L 2353.5,694.0 L 2354.0,694.5 L 2354.5,695.0 L 2355.0,695.5 L 2355.5,696.0 L 2356.0,696.5 L 2356.5,697.0 L 2357.0,697.5 L 2357.5,698.0 L 2358.0,698.5 L 2358.5,699.0 L 2359.0,699.5 L 2359.5,700.0 L 2360.0,700.5 L 2360.5,701.0 L 2361.0,701.5 L 2361.5,702.0 L 2362.0,702.5 L 2362.5,703.0 L 2363.0,703.5 L 2363.5,704.0 L 2364.0,704.5 L 2364.5,705.0 L 2365.0,705.5 L 2365.5,706.0 L 2366.0,706.5 L 2366.5,707.0 L 2367.0,707.5 L 2367.5,708.0 L 2368.0,708.5 L 2368.5,709.0 L 2369.0,709.5 L 2369.5,710.0 L 2370.0,710.5 L 2370.5,711.0 L 2371.0,711.5 L 2371.5,712.0 L 2372.0,712.5 L 2372.5,713.0 L 2373.0,713.5 L 2373.5,714.0 L 2374.0,714.5 L 2374.5,715.0 L 2375.0,715.5 L 2375.5,716.0 L 2376.0,716.5 L 2376.5,717.0 L 2377.0,717.5 L 2377.5,718.0 L 2378.0,718.5 L 2378.5,719.0 L 2378.5,720.0 L 2378.5,721.0 L 2378.5,722.0 L 2378.5,723.0 L 2378.5,724.0 L 2378.5,725.0 L 2378.5,726.0 L 2378.5,727.0 L 2378.5,728.0 L 2378.5,729.0 L 2378.5,730.0 L 2378.5,731.0 L 2378.5,732.0 L 2378.5,733.0 L 2378.5,734.0 L 2378.5,735.0 L 2378.0,735.5 L 2377.5,736.0 L 2377.0,736.5 L 2376.5,737.0 L 2376.0,737.5 L 2375.5,738.0 L 2375.0,738.5 L 2374.5,739.0 L 2374.0,739.5 L 2373.5,740.0 L 2373.0,740.5 L 2372.5,741.0 L 2372.0,741.5 L 2371.5,742.0 L 2371.0,742.5 L 2370.5,743.0 L 2370.0,743.5 L 2369.5,744.0 L 2369.0,744.5 L 2368.5,745.0 L 2368.0,745.5 L 2367.5,746.0 L 2367.0,746.5 L 2366.5,747.0 L 2366.0,747.5 L 2365.5,748.0 L 2365.0,748.5 L 2364.5,749.0 L 2364.0,749.5 L 2363.5,750.0 L 2363.0,750.5 L 2362.5,751.0 L 2362.0,751.5 L 2361.5,752.0 L 2361.0,752.5 L 2360.5,753.0 L 2360.0,753.5 L 2359.5,754.0 L 2359.0,754.5 L 2358.5,755.0 L 2358.0,755.5 L 2357.5,756.0 L 2357.0,756.5 L 2356.5,757.0 L 2356.0,757.5 L 2355.5,758.0 L 2355.0,758.5 L 2354.5,759.0 L 2354.0,759.5 L 2353.5,760.0 L 2353.0,760.5 L 2352.5,761.0 L 2352.0,761.5 L 2351.5,762.0 L 2351.0,762.5 L 2350.5,763.0 L 2350.0,763.5 L 2349.5,764.0 L 2349.0,764.5 L 2348.5,765.0 L 2348.0,765.5 L 2347.5,766.0 L 2347.0,766.5 L 2346.5,767.0 L 2346.0,767.5 L 2345.5,768.0 L 2345.5,769.0 L 2345.5,770.0 L 2345.0,770.5 L 2344.0,770.5 L 2343.5,770.0 L 2343.0,769.5 L 2342.0,769.5 L 2341.0,769.5 L 2340.0,769.5 L 2339.0,769.5 L 2338.5,770.0 L 2338.0,770.5 L 2337.0,770.5 L 2336.0,770.5 L 2335.0,770.5 L 2334.5,771.0 L 2334.5,772.0 L 2334.5,773.0 L 2334.5,774.0 L 2334.0,774.5 L 2333.5,775.0 L 2333.5,776.0 L 2333.0,776.5 L 2332.5,777.0 L 2332.5,778.0 L 2332.0,778.5 L 2331.5,779.0 L 2331.5,780.0 L 2331.5,781.0 L 2331.0,781.5 L 2330.5,782.0 L 2330.0,782.5 L 2329.5,783.0 L 2329.0,783.5 L 2328.5,784.0 L 2328.0,784.5 Z" />
  <path id="epstein-island-e843c1" data-owner="203550865204707328" fill="hsla(287,65%,52%,0.55)" d="M 2416.0,808.5 L 2415.0,808.5 L 2414.5,808.0 L 2414.0,807.5 L 2413.5,807.0 L 2413.5,806.0 L 2413.0,805.5 L 2412.5,805.0 L 2412.0,804.5 L 2411.5,804.0 L 2411.0,803.5 L 2410.0,803.5 L 2409.5,803.0 L 2409.0,802.5 L 2408.5,802.0 L 2408.0,801.5 L 2407.0,801.5 L 2406.5,801.0 L 2406.0,800.5 L 2405.5,800.0 L 2405.0,799.5 L 2404.5,799.0 L 2404.0,798.5 L 2403.0,798.5 L 2402.5,798.0 L 2402.0,797.5 L 2401.5,797.0 L 2401.0,796.5 L 2400.5,796.0 L 2400.0,795.5 L 2399.0,795.5 L 2398.5,795.0 L 2398.0,794.5 L 2397.0,794.5 L 2396.5,794.0 L 2396.0,793.5 L 2395.0,793.5 L 2394.0,793.5 L 2393.5,793.0 L 2393.0,792.5 L 2392.0,792.5 L 2391.5,792.0 L 2391.0,791.5 L 2390.0,791.5 L 2389.0,791.5 L 2388.5,791.0 L 2388.0,790.5 L 2387.0,790.5 L 2386.5,790.0 L 2386.0,789.5 L 2385.0,789.5 L 2384.5,789.0 L 2384.0,788.5 L 2383.0,788.5 L 2382.5,788.0 L 2382.0,787.5 L 2381.0,787.5 L 2380.5,787.0 L 2380.0,786.5 L 2379.0,786.5 L 2378.5,786.0 L 2378.0,785.5 L 2377.0,785.5 L 2376.0,785.5 L 2375.5,785.0 L 2375.0,784.5 L 2374.0,784.5 L 2373.5,784.0 L 2373.0,783.5 L 2372.0,783.5 L 2371.0,783.5 L 2370.5,783.0 L 2370.0,782.5 L 2369.0,782.5 L 2368.0,782.5 L 2367.5,782.0 L 2367.0,781.5 L 2366.0,781.5 L 2365.5,781.0 L 2365.0,780.5 L 2364.5,780.0 L 2364.0,779.5 L 2363.5,779.0 L 2363.0,778.5 L 2362.0,778.5 L 2361.5,778.0 L 2361.0,777.5 L 2360.0,777.5 L 2359.5,777.0 L 2359.0,776.5 L 2358.5,776.0 L 2358.0,775.5 L 2357.5,775.0 L 2357.0,774.5 L 2356.0,774.5 L 2355.5,774.0 L 2355.0,773.5 L 2354.5,773.0 L 2354.0,772.5 L 2353.0,772.5 L 2352.5,772.0 L 2352.0,771.5 L 2351.0,771.5 L 2350.0,771.5 L 2349.5,771.0 L 2349.0,770.5 L 2348.0,770.5 L 2347.0,770.5 L 2346.0,770.5 L 2345.5,770.0 L 2345.5,769.0 L 2345.5,768.0 L 2346.0,767.5 L 2346.5,767.0 L 2347.0,766.5 L 2347.5,766.0 L 2348.0,765.5 L 2348.5,765.0 L 2349.0,764.5 L 2349.5,764.0 L 2350.0,763.5 L 2350.5,763.0 L 2351.0,762.5 L 2351.5,762.0 L 2352.0,761.5 L 2352.5,761.0 L 2353.0,760.5 L 2353.5,760.0 L 2354.0,759.5 L 2354.5,759.0 L 2355.0,758.5 L 2355.5,758.0 L 2356.0,757.5 L 2356.5,757.0 L 2357.0,756.5 L 2357.5,756.0 L 2358.0,755.5 L 2358.5,755.0 L 2359.0,754.5 L 2359.5,754.0 L 2360.0,753.5 L 2360.5,753.0 L 2361.0,752.5 L 2361.5,752.0 L 2362.0,751.5 L 2362.5,751.0 L 2363.0,750.5 L 2363.5,750.0 L 2364.0,749.5 L 2364.5,749.0 L 2365.0,748.5 L 2365.5,748.0 L 2366.0,747.5 L 2366.5,747.0 L 2367.0,746.5 L 2367.5,746.0 L 2368.0,745.5 L 2368.5,745.0 L 2369.0,744.5 L 2369.5,744.0 L 2370.0,743.5 L 2370.5,743.0 L 2371.0,742.5 L 2371.5,742.0 L 2372.0,741.5 L 2372.5,741.0 L 2373.0,740.5 L 2373.5,740.0 L 2374.0,739.5 L 2374.5,739.0 L 2375.0,738.5 L 2375.5,738.0 L 2376.0,737.5 L 2376.5,737.0 L 2377.0,736.5 L 2377.5,736.0 L 2378.0,735.5 L 2378.5,735.0 L 2378.5,734.0 L 2378.5,733.0 L 2378.5,732.0 L 2378.5,731.0 L 2378.5,730.0 L 2378.5,729.0 L 2378.5,728.0 L 2378.5,727.0 L 2378.5,726.0 L 2378.5,725.0 L 2378.5,724.0 L 2378.5,723.0 L 2378.5,722.0 L 2378.5,721.0 L 2378.5,720.0 L 2378.5,719.0 L 2379.0,718.5 L 2379.5,718.0 L 2380.0,717.5 L 2380.5,717.0 L 2381.0,716.5 L 2381.5,716.0 L 2382.0,715.5 L 2382.5,715.0 L 2383.0,714.5 L 2383.5,714.0 L 2384.0,713.5 L 2384.5,713.0 L 2385.0,712.5 L 2385.5,712.0 L 2386.0,711.5 L 2386.5,711.0 L 2387.0,710.5 L 2387.5,710.0 L 2388.0,709.5 L 2388.5,709.0 L 2389.0,708.5 L 2389.5,708.0 L 2390.0,707.5 L 2390.5,707.0 L 2391.0,706.5 L 2391.5,706.0 L 2392.0,705.5 L 2392.5,705.0 L 2393.0,704.5 L 2393.5,704.0 L 2394.0,703.5 L 2394.5,703.0 L 2395.0,702.5 L 2396.0,702.5 L 2396.5,702.0 L 2397.0,701.5 L 2398.0,701.5 L 2399.0,701.5 L 2399.5,702.0 L 2400.0,702.5 L 2401.0,702.5 L 2401.5,703.0 L 2401.5,704.0 L 2402.0,704.5 L 2402.5,705.0 L 2403.0,705.5 L 2403.5,706.0 L 2404.0,706.5 L 2404.5,707.0 L 2405.0,707.5 L 2406.0,707.5 L 2406.5,708.0 L 2407.0,708.5 L 2408.0,708.5 L 2408.5,709.0 L 2408.5,710.0 L 2409.0,710.5 L 2409.5,711.0 L 2409.5,712.0 L 2410.0,712.5 L 2410.5,713.0 L 2410.5,714.0 L 2411.0,714.5 L 2411.5,715.0 L 2412.0,715.5 L 2412.5,716.0 L 2413.0,716.5 L 2413.5,717.0 L 2414.0,717.5 L 2414.5,718.0 L 2414.5,719.0 L 2415.0,719.5 L 2415.5,720.0 L 2416.0,720.5 L 2416.5,721.0 L 2416.5,722.0 L 2416.5,723.0 L 2416.5,724.0 L 2416.5,725.0 L 2416.0,725.5 L 2415.5,726.0 L 2415.5,727.0 L 2415.5,728.0 L 2415.0,728.5 L 2414.5,729.0 L 2414.5,730.0 L 2414.5,731.0 L 2414.5,732.0 L 2415.0,732.5 L 2416.0,732.5 L 2416.5,733.0 L 2417.0,733.5 L 2418.0,733.5 L 2419.0,733.5 L 2419.5,734.0 L 2420.0,734.5 L 2421.0,734.5 L 2422.0,734.5 L 2422.5,735.0 L 2423.0,735.5 L 2424.0,735.5 L 2424.5,736.0 L 2425.0,736.5 L 2426.0,736.5 L 2427.0,736.5 L 2428.0,736.5 L 2429.0,736.5 L 2429.5,737.0 L 2430.0,737.5 L 2431.0,737.5 L 2432.0,737.5 L 2433.0,737.5 L 2434.0,737.5 L 2434.5,738.0 L 2435.0,738.5 L 2436.0,738.5 L 2436.5,739.0 L 2437.0,739.5 L 2437.5,740.0 L 2437.5,741.0 L 2437.5,742.0 L 2437.5,743.0 L 2437.5,744.0 L 2438.0,744.5 L 2438.5,745.0 L 2438.5,746.0 L 2439.0,746.5 L 2439.5,747.0 L 2439.5,748.0 L 2440.0,748.5 L 2440.5,749.0 L 2441.0,749.5 L 2441.5,750.0 L 2442.0,750.5 L 2442.5,751.0 L 2443.0,751.5 L 2443.5,752.0 L 2444.0,752.5 L 2444.5,753.0 L 2445.0,753.5 L 2445.5,754.0 L 2446.0,754.5 L 2446.5,755.0 L 2447.0,755.5 L 2447.5,756.0 L 2448.0,756.5 L 2448.5,757.0 L 2449.0,757.5 L 2449.5,758.0 L 2450.0,758.5 L 2451.0,758.5 L 2451.5,759.0 L 2451.5,760.0 L 2451.5,761.0 L 2451.5,762.0 L 2451.5,763.0 L 2451.5,764.0 L 2451.5,765.0 L 2451.5,766.0 L 2451.5,767.0 L 2451.5,768.0 L 2451.5,769.0 L 2451.5,770.0 L 2451.5,771.0 L 2451.5,772.0 L 2451.0,772.5 L 2450.5,773.0 L 2450.0,773.5 L 2449.5,774.0 L 2449.0,774.5 L 2448.5,775.0 L 2448.0,775.5 L 2447.5,776.0 L 2447.0,776.5 L 2446.5,777.0 L 2446.0,777.5 L 2445.5,778.0 L 2445.0,778.5 L 2444.5,779.0 L 2444.0,779.5 L 2443.5,780.0 L 2443.0,780.5 L 2442.5,781.0 L 2442.0,781.5 L 2441.5,782.0 L 2441.0,782.5 L 2440.5,783.0 L 2440.0,783.5 L 2439.5,784.0 L 2439.0,784.5 L 2438.5,785.0 L 2438.0,785.5 L 2437.5,786.0 L 2437.0,786.5 L 2436.5,787.0 L 2436.0,787.5 L 2435.5,788.0 L 2435.0,788.5 L 2434.5,789.0 L 2434.0,789.5 L 2433.5,790.0 L 2433.0,790.5 L 2432.5,791.0 L 2432.0,791.5 L 2431.5,792.0 L 2431.0,792.5 L 2430.5,793.0 L 2430.0,793.5 L 2429.5,794.0 L 2429.0,794.5 L 2428.5,795.0 L 2428.0,795.5 L 2427.5,796.0 L 2427.0,796.5 L 2426.5,797.0 L 2426.0,797.5 L 2425.5,798.0 L 2425.0,798.5 L 2424.5,799.0 L 2424.0,799.5 L 2423.5,800.0 L 2423.0,800.5 L 2422.5,801.0 L 2422.0,801.5 L 2421.5,802.0 L 2421.0,802.5 L 2420.5,803.0 L 2420.0,803.5 L 2419.5,804.0 L 2419.0,804.5 L 2418.5,805.0 L 2418.0,805.5 L 2417.5,806.0 L 2417.0,806.5 L 2416.5,807.0 L 2416.5,808.0 L 2416.0,808.5 Z" />
  <path id="cool-17d8e4" data-owner="206296798724227082" fill="hsla(214,65%,52%,0.55)" d="M 2644.0,1140.5 L 2643.0,1140.5 L 2642.0,1140.5 L 2641.5,1140.0 L 2641.0,1139.5 L 2640.5,1139.0 L 2640.0,1138.5 L 2639.5,1138.0 L 2639.0,1137.5 L 2638.0,1137.5 L 2637.5,1137.0 L 2637.0,1136.5 L 2636.5,1136.0 L 2636.0,1135.5 L 2635.0,1135.5 L 2634.5,1135.0 L 2634.0,1134.5 L 2633.5,1134.0 L 2633.0,1133.5 L 2632.5,1133.0 L 2632.0,1132.5 L 2631.0,1132.5 L 2630.5,1132.0 L 2630.0,1131.5 L 2629.0,1131.5 L 2628.5,1131.0 L 2628.0,1130.5 L 2627.5,1130.0 L 2627.5,1129.0 L 2627.0,1128.5 L 2626.5,1128.0 L 2626.0,1127.5 L 2625.5,1127.0 L 2625.0,1126.5 L 2624.5,1126.0 L 2624.0,1125.5 L 2623.0,1125.5 L 2622.5,1125.0 L 2622.0,1124.5 L 2621.5,1124.0 L 2621.0,1123.5 L 2620.5,1123.0 L 2620.0,1122.5 L 2619.5,1122.0 L 2619.0,1121.5 L 2618.0,1121.5 L 2617.5,1121.0 L 2617.0,1120.5 L 2616.0,1120.5 L 2615.5,1120.0 L 2615.0,1119.5 L 2614.0,1119.5 L 2613.5,1119.0 L 2613.0,1118.5 L 2612.5,1118.0 L 2612.0,1117.5 L 2611.0,1117.5 L 2610.5,1117.0 L 2610.0,1116.5 L 2609.0,1116.5 L 2608.0,1116.5 L 2607.0,1116.5 L 2606.5,1116.0 L 2606.0,1115.5 L 2605.0,1115.5 L 2604.5,1115.0 L 2604.0,1114.5 L 2603.0,1114.5 L 2602.0,1114.5 L 2601.5,1114.0 L 2601.0,1113.5 L 2600.0,1113.5 L 2599.0,1113.5 L 2598.0,1113.5 L 2597.5,1113.0 L 2597.0,1112.5 L 2596.0,1112.5 L 2595.0,1112.5 L 2594.5,1112.0 L 2594.0,1111.5 L 2593.0,1111.5 L 2592.5,1111.0 L 2592.0,1110.5 L 2591.0,1110.5 L 2590.5,1110.0 L 2590.0,1109.5 L 2589.0,1109.5 L 2588.5,1109.0 L 2588.0,1108.5 L 2587.0,1108.5 L 2586.5,1108.0 L 2586.0,1107.5 L 2585.0,1107.5 L 2584.5,1107.0 L 2584.0,1106.5 L 2583.0,1106.5 L 2582.0,1106.5 L 2581.0,1106.5 L 2580.0,1106.5 L 2579.0,1106.5 L 2578.5,1106.0 L 2578.0,1105.5 L 2577.5,1105.0 L 2577.0,1104.5 L 2576.0,1104.5 L 2575.0,1104.5 L 2574.5,1104.0 L 2574.0,1103.5 L 2573.0,1103.5 L 2572.0,1103.5 L 2571.0,1103.5 L 2570.5,1103.0 L 2570.0,1102.5 L 2569.5,1102.0 L 2569.0,1101.5 L 2568.5,1101.0 L 2568.0,1100.5 L 2567.0,1100.5 L 2566.5,1100.0 L 2566.0,1099.5 L 2565.5,1099.0 L 2565.0,1098.5 L 2564.5,1098.0 L 2564.0,1097.5 L 2563.0,1097.5 L 2562.5,1097.0 L 2562.0,1096.5 L 2561.0,1096.5 L 2560.0,1096.5 L 2559.5,1096.0 L 2559.0,1095.5 L 2558.5,1095.0 L 2558.0,1094.5 L 2557.0,1094.5 L 2556.5,1094.0 L 2556.0,1093.5 L 2555.5,1093.0 L 2555.0,1092.5 L 2554.5,1092.0 L 2554.0,1091.5 L 2553.5,1091.0 L 2553.0,1090.5 L 2552.5,1090.0 L 2552.0,1089.5 L 2551.5,1089.0 L 2551.0,1088.5 L 2550.5,1088.0 L 2550.0,1087.5 L 2549.5,1087.0 L 2549.0,1086.5 L 2548.5,1086.0 L 2548.0,1085.5 L 2547.0,1085.5 L 2546.5,1085.0 L 2546.0,1084.5 L 2545.5,1084.0 L 2545.0,1083.5 L 2544.5,1083.0 L 2544.0,1082.5 L 2543.5,1082.0 L 2544.0,1081.5 L 2544.5,1081.0 L 2544.5,1080.0 L 2545.0,1079.5 L 2545.5,1079.0 L 2546.0,1078.5 L 2546.5,1078.0 L 2547.0,1077.5 L 2547.5,1077.0 L 2548.0,1076.5 L 2548.5,1076.0 L 2549.0,1075.5 L 2549.5,1075.0 L 2550.0,1074.5 L 2550.5,1074.0 L 2551.0,1073.5 L 2551.5,1073.0 L 2552.0,1072.5 L 2552.5,1072.0 L 2553.0,1071.5 L 2553.5,1071.0 L 2554.0,1070.5 L 2554.5,1070.0 L 2555.0,1069.5 L 2555.5,1069.0 L 2556.0,1068.5 L 2556.5,1068.0 L 2557.0,1067.5 L 2557.5,1067.0 L 2558.0,1066.5 L 2558.5,1066.0 L 2559.0,1065.5 L 2559.5,1065.0 L 2560.0,1064.5 L 2560.5,1064.0 L 2561.0,1063.5 L 2561.5,1063.0 L 2562.0,1062.5 L 2562.5,1062.0 L 2563.0,1061.5 L 2563.5,1061.0 L 2564.0,1060.5 L 2564.5,1060.0 L 2565.0,1059.5 L 2565.5,1059.0 L 2566.0,1058.5 L 2566.5,1058.0 L 2567.0,1057.5 L 2567.5,1057.0 L 2568.0,1056.5 L 2568.5,1056.0 L 2569.0,1055.5 L 2569.5,1055.0 L 2570.0,1054.5 L 2570.5,1054.0 L 2571.0,1053.5 L 2571.5,1053.0 L 2572.0,1052.5 L 2572.5,1052.0 L 2573.0,1051.5 L 2573.5,1051.0 L 2574.0,1050.5 L 2574.5,1050.0 L 2575.0,1049.5 L 2575.5,1049.0 L 2576.0,1048.5 L 2576.5,1048.0 L 2577.0,1047.5 L 2577.5,1047.0 L 2578.0,1046.5 L 2578.5,1046.0 L 2579.0,1045.5 L 2579.5,1045.0 L 2580.0,1044.5 L 2580.5,1044.0 L 2581.0,1043.5 L 2581.5,1043.0 L 2582.0,1042.5 L 2582.5,1042.0 L 2583.0,1041.5 L 2583.5,1041.0 L 2584.0,1040.5 L 2584.5,1040.0 L 2585.0,1039.5 L 2585.5,1039.0 L 2586.0,1038.5 L 2586.5,1038.0 L 2587.0,1037.5 L 2587.5,1037.0 L 2588.0,1036.5 L 2588.5,1036.0 L 2589.0,1035.5 L 2589.5,1035.0 L 2590.0,1034.5 L 2590.5,1034.0 L 2591.0,1033.5 L 2591.5,1033.0 L 2592.0,1032.5 L 2592.5,1032.0 L 2593.0,1031.5 L 2593.5,1031.0 L 2594.0,1030.5 L 2594.5,1030.0 L 2595.0,1029.5 L 2595.5,1029.0 L 2596.0,1028.5 L 2596.5,1028.0 L 2597.0,1027.5 L 2597.5,1027.0 L 2598.0,1026.5 L 2598.5,1026.0 L 2599.0,1025.5 L 2599.5,1025.0 L 2600.0,1024.5 L 2600.5,1024.0 L 2601.0,1023.5 L 2601.5,1023.0 L 2602.0,1022.5 L 2602.5,1022.0 L 2603.0,1021.5 L 2603.5,1021.0 L 2604.0,1020.5 L 2604.5,1020.0 L 2605.0,1019.5 L 2605.5,1019.0 L 2606.0,1018.5 L 2606.5,1018.0 L 2607.0,1017.5 L 2607.5,1017.0 L 2608.0,1016.5 L 2608.5,1016.0 L 2609.0,1015.5 L 2609.5,1015.0 L 2610.0,1014.5 L 2610.5,1014.0 L 2611.0,1013.5 L 2611.5,1013.0 L 2612.0,1012.5 L 2612.5,1012.0 L 2613.0,1011.5 L 2613.5,1011.0 L 2614.0,1010.5 L 2615.0,1010.5 L 2615.5,1011.0 L 2616.0,1011.5 L 2616.5,1011.0 L 2617.0,1010.5 L 2617.5,1011.0 L 2618.0,1011.5 L 2619.0,1011.5 L 2620.0,1011.5 L 2621.0,1011.5 L 2621.5,1012.0 L 2622.0,1012.5 L 2623.0,1012.5 L 2623.5,1013.0 L 2624.0,1013.5 L 2625.0,1013.5 L 2625.5,1014.0 L 2626.0,1014.5 L 2626.5,1015.0 L 2627.0,1015.5 L 2627.5,1016.0 L 2628.0,1016.5 L 2628.5,1017.0 L 2629.0,1017.5 L 2629.5,1018.0 L 2630.0,1018.5 L 2630.5,1019.0 L 2631.0,1019.5 L 2631.5,1020.0 L 2632.0,1020.5 L 2632.5,1021.0 L 2633.0,1021.5 L 2633.5,1022.0 L 2634.0,1022.5 L 2634.5,1023.0 L 2635.0,1023.5 L 2635.5,1024.0 L 2636.0,1024.5 L 2636.5,1025.0 L 2637.0,1025.5 L 2637.5,1026.0 L 2638.0,1026.5 L 2638.5,1027.0 L 2639.0,1027.5 L 2639.5,1028.0 L 2640.0,1028.5 L 2640.5,1029.0 L 2641.0,1029.5 L 2641.5,1030.0 L 2642.0,1030.5 L 2642.5,1031.0 L 2643.0,1031.5 L 2643.5,1032.0 L 2644.0,1032.5 L 2644.5,1033.0 L 2645.0,1033.5 L 2645.5,1034.0 L 2646.0,1034.5 L 2646.5,1035.0 L 2647.0,1035.5 L 2647.5,1036.0 L 2648.0,1036.5 L 2648.5,1037.0 L 2649.0,1037.5 L 2649.5,1038.0 L 2650.0,1038.5 L 2650.5,1039.0 L 2651.0,1039.5 L 2651.5,1040.0 L 2652.0,1040.5 L 2652.5,1041.0 L 2653.0,1041.5 L 2653.5,1042.0 L 2654.0,1042.5 L 2654.5,1043.0 L 2654.5,1044.0 L 2655.0,1044.5 L 2655.5,1045.0 L 2656.0,1045.5 L 2656.5,1046.0 L 2657.0,1046.5 L 2657.5,1047.0 L 2658.0,1047.5 L 2658.5,1048.0 L 2659.0,1048.5 L 2659.5,1049.0 L 2659.5,1050.0 L 2660.0,1050.5 L 2660.5,1051.0 L 2661.0,1051.5 L 2661.5,1052.0 L 2662.0,1052.5 L 2662.5,1053.0 L 2663.0,1053.5 L 2663.5,1054.0 L 2663.5,1055.0 L 2664.0,1055.5 L 2664.5,1056.0 L 2665.0,1056.5 L 2665.5,1057.0 L 2665.5,1058.0 L 2666.0,1058.5 L 2666.5,1059.0 L 2667.0,1059.5 L 2667.5,1060.0 L 2668.0,1060.5 L 2668.5,1061.0 L 2669.0,1061.5 L 2669.5,1062.0 L 2670.0,1062.5 L 2670.5,1063.0 L 2671.0,1063.5 L 2671.5,1064.0 L 2672.0,1064.5 L 2672.5,1065.0 L 2673.0,1065.5 L 2673.5,1066.0 L 2674.0,1066.5 L 2674.5,1067.0 L 2675.0,1067.5 L 2675.5,1068.0 L 2676.0,1068.5 L 2676.5,1069.0 L 2677.0,1069.5 L 2677.5,1070.0 L 2678.0,1070.5 L 2678.5,1071.0 L 2679.0,1071.5 L 2679.5,1072.0 L 2680.0,1072.5 L 2680.5,1073.0 L 2681.0,1073.5 L 2681.5,1074.0 L 2682.0,1074.5 L 2682.5,1075.0 L 2683.0,1075.5 L 2683.5,1076.0 L 2684.0,1076.5 L 2684.5,1077.0 L 2685.0,1077.5 L 2685.5,1078.0 L 2686.0,1078.5 L 2686.5,1079.0 L 2687.0,1079.5 L 2687.5,1080.0 L 2688.0,1080.5 L 2688.5,1081.0 L 2689.0,1081.5 L 2689.5,1082.0 L 2689.5,1083.0 L 2689.5,1084.0 L 2689.5,1085.0 L 2689.5,1086.0 L 2689.5,1087.0 L 2689.5,1088.0 L 2689.5,1089.0 L 2689.5,1090.0 L 2689.5,1091.0 L 2689.5,1092.0 L 2690.0,1092.5 L 2690.5,1093.0 L 2690.5,1094.0 L 2690.5,1095.0 L 2690.0,1095.5 L 2689.5,1096.0 L 2689.0,1096.5 L 2688.5,1097.0 L 2688.0,1097.5 L 2687.5,1098.0 L 2687.0,1098.5 L 2686.5,1099.0 L 2686.0,1099.5 L 2685.5,1100.0 L 2685.0,1100.5 L 2684.5,1101.0 L 2684.0,1101.5 L 2683.5,1102.0 L 2683.0,1102.5 L 2682.5,1103.0 L 2682.0,1103.5 L 2681.5,1104.0 L 2681.0,1104.5 L 2680.5,1105.0 L 2680.0,1105.5 L 2679.5,1106.0 L 2679.0,1106.5 L 2678.5,1107.0 L 2678.0,1107.5 L 2677.5,1108.0 L 2677.0,1108.5 L 2676.5,1109.0 L 2676.0,1109.5 L 2675.5,1110.0 L 2675.0,1110.5 L 2674.5,1111.0 L 2674.0,1111.5 L 2673.5,1112.0 L 2673.0,1112.5 L 2672.5,1113.0 L 2672.0,1113.5 L 2671.5,1114.0 L 2671.0,1114.5 L 2670.5,1115.0 L 2670.0,1115.5 L 2669.5,1116.0 L 2669.0,1116.5 L 2668.5,1117.0 L 2668.0,1117.5 L 2667.5,1118.0 L 2667.0,1118.5 L 2666.5,1119.0 L 2666.0,1119.5 L 2665.5,1120.0 L 2665.0,1120.5 L 2664.5,1121.0 L 2664.0,1121.5 L 2663.5,1122.0 L 2663.0,1122.5 L 2662.5,1123.0 L 2662.0,1123.5 L 2661.5,1124.0 L 2661.0,1124.5 L 2660.5,1125.0 L 2660.0,1125.5 L 2659.5,1126.0 L 2659.0,1126.5 L 2658.5,1127.0 L 2658.0,1127.5 L 2657.5,1128.0 L 2657.0,1128.5 L 2656.5,1129.0 L 2656.0,1129.5 L 2655.5,1130.0 L 2655.0,1130.5 L 2654.5,1131.0 L 2654.0,1131.5 L 2653.5,1132.0 L 2653.0,1132.5 L 2652.5,1133.0 L 2652.0,1133.5 L 2651.5,1134.0 L 2651.0,1134.5 L 2650.5,1135.0 L 2650.0,1135.5 L 2649.5,1136.0 L 2649.0,1136.5 L 2648.5,1137.0 L 2648.0,1137.5 L 2647.5,1138.0 L 2647.0,1138.5 L 2646.5,1139.0 L 2646.0,1139.5 L 2645.0,1139.5 L 2644.5,1140.0 L 2644.0,1140.5 Z" />
  <path id="testificate-412e54" data-owner="206296798724227082" fill="hsla(286,65%,52%,0.55)" d="M 2526.0,910.5 L 2525.0,910.5 L 2524.0,910.5 L 2523.0,910.5 L 2522.5,910.0 L 2522.0,909.5 L 2521.0,909.5 L 2520.5,909.0 L 2520.0,908.5 L 2519.0,908.5 L 2518.5,908.0 L 2518.0,907.5 L 2517.0,907.5 L 2516.0,907.5 L 2515.5,907.0 L 2515.0,906.5 L 2514.0,906.5 L 2513.0,906.5 L 2512.5,906.0 L 2512.0,905.5 L 2511.0,905.5 L 2510.0,905.5 L 2509.5,905.0 L 2509.0,904.5 L 2508.0,904.5 L 2507.0,904.5 L 2506.0,904.5 L 2505.5,904.0 L 2505.5,903.0 L 2505.0,902.5 L 2504.5,902.0 L 2504.0,901.5 L 2503.5,901.0 L 2503.5,900.0 L 2503.0,899.5 L 2502.5,899.0 L 2502.0,898.5 L 2501.5,898.0 L 2501.0,897.5 L 2500.5,897.0 L 2500.0,896.5 L 2499.5,896.0 L 2499.0,895.5 L 2498.5,895.0 L 2498.0,894.5 L 2497.0,894.5 L 2496.5,894.0 L 2496.0,893.5 L 2495.5,893.0 L 2495.0,892.5 L 2494.5,892.0 L 2494.0,891.5 L 2493.5,891.0 L 2493.0,890.5 L 2492.0,890.5 L 2491.5,890.0 L 2491.0,889.5 L 2490.5,889.0 L 2490.0,888.5 L 2489.5,888.0 L 2489.0,887.5 L 2488.5,887.0 L 2488.0,886.5 L 2487.0,886.5 L 2486.5,886.0 L 2486.0,885.5 L 2485.0,885.5 L 2484.5,885.0 L 2484.0,884.5 L 2483.0,884.5 L 2482.5,884.0 L 2482.0,883.5 L 2481.5,883.0 L 2481.0,882.5 L 2480.0,882.5 L 2479.5,882.0 L 2479.0,881.5 L 2478.0,881.5 L 2477.5,881.0 L 2477.0,880.5 L 2476.5,880.0 L 2476.0,879.5 L 2475.5,879.0 L 2475.0,878.5 L 2474.5,878.0 L 2474.5,877.0 L 2474.5,876.0 L 2474.0,875.5 L 2473.5,875.0 L 2473.0,874.5 L 2472.5,874.0 L 2472.0,873.5 L 2471.5,873.0 L 2471.5,872.0 L 2471.0,871.5 L 2470.5,871.0 L 2470.0,870.5 L 2469.5,870.0 L 2469.0,869.5 L 2468.5,869.0 L 2468.0,868.5 L 2467.5,868.0 L 2467.0,867.5 L 2466.5,867.0 L 2466.5,866.0 L 2466.0,865.5 L 2465.5,865.0 L 2465.5,864.0 L 2465.0,863.5 L 2464.5,863.0 L 2464.5,862.0 L 2464.0,861.5 L 2463.5,861.0 L 2463.5,860.0 L 2463.0,859.5 L 2462.5,859.0 L 2462.0,858.5 L 2461.0,858.5 L 2460.5,858.0 L 2460.0,857.5 L 2459.0,857.5 L 2458.0,857.5 L 2457.0,857.5 L 2456.0,857.5 L 2455.0,857.5 L 2454.0,857.5 L 2453.0,857.5 L 2452.0,857.5 L 2451.5,858.0 L 2451.0,858.5 L 2450.0,858.5 L 2449.0,858.5 L 2448.0,858.5 L 2447.0,858.5 L 2446.0,858.5 L 2445.0,858.5 L 2444.0,858.5 L 2443.0,858.5 L 2442.0,858.5 L 2441.0,858.5 L 2440.5,858.0 L 2440.0,857.5 L 2439.5,857.0 L 2439.0,856.5 L 2438.5,856.0 L 2438.0,855.5 L 2437.0,855.5 L 2436.0,855.5 L 2435.5,855.0 L 2436.0,854.5 L 2437.0,854.5 L 2438.0,854.5 L 2439.0,854.5 L 2440.0,854.5 L 2441.0,854.5 L 2442.0,854.5 L 2443.0,854.5 L 2444.0,854.5 L 2445.0,854.5 L 2446.0,854.5 L 2447.0,854.5 L 2448.0,854.5 L 2449.0,854.5 L 2450.0,854.5 L 2451.0,854.5 L 2452.0,854.5 L 2453.0,854.5 L 2454.0,854.5 L 2455.0,854.5 L 2456.0,854.5 L 2457.0,854.5 L 2458.0,854.5 L 2459.0,854.5 L 2460.0,854.5 L 2461.0,854.5 L 2461.5,854.0 L 2462.0,853.5 L 2462.5,853.0 L 2463.0,852.5 L 2463.5,852.0 L 2464.0,851.5 L 2464.5,851.0 L 2465.0,850.5 L 2465.5,850.0 L 2466.0,849.5 L 2466.5,849.0 L 2467.0,848.5 L 2467.5,848.0 L 2468.0,847.5 L 2468.5,847.0 L 2469.0,846.5 L 2469.5,846.0 L 2470.0,845.5 L 2470.5,845.0 L 2471.0,844.5 L 2471.5,844.0 L 2472.0,843.5 L 2472.5,843.0 L 2473.0,842.5 L 2473.5,842.0 L 2474.0,841.5 L 2474.5,841.0 L 2475.0,840.5 L 2475.5,840.0 L 2476.0,839.5 L 2476.5,839.0 L 2477.0,838.5 L 2477.5,838.0 L 2478.0,837.5 L 2478.5,837.0 L 2479.0,836.5 L 2479.5,836.0 L 2480.0,835.5 L 2480.5,835.0 L 2481.0,834.5 L 2481.5,834.0 L 2482.0,833.5 L 2482.5,833.0 L 2483.0,832.5 L 2483.5,832.0 L 2484.0,831.5 L 2484.5,831.0 L 2485.0,830.5 L 2485.5,830.0 L 2486.0,829.5 L 2486.5,829.0 L 2487.0,828.5 L 2487.5,828.0 L 2488.0,827.5 L 2488.5,827.0 L 2489.0,826.5 L 2489.5,826.0 L 2490.0,825.5 L 2490.5,825.0 L 2491.0,824.5 L 2491.5,824.0 L 2492.0,823.5 L 2492.5,823.0 L 2493.0,822.5 L 2494.0,822.5 L 2495.0,822.5 L 2496.0,822.5 L 2497.0,822.5 L 2498.0,822.5 L 2499.0,822.5 L 2499.5,822.0 L 2500.0,821.5 L 2501.0,821.5 L 2502.0,821.5 L 2502.5,821.0 L 2502.5,820.0 L 2503.0,819.5 L 2503.5,820.0 L 2504.0,820.5 L 2505.0,820.5 L 2505.5,821.0 L 2506.0,821.5 L 2506.5,822.0 L 2507.0,822.5 L 2507.5,823.0 L 2508.0,823.5 L 2508.5,824.0 L 2509.0,824.5 L 2510.0,824.5 L 2510.5,825.0 L 2511.0,825.5 L 2511.5,826.0 L 2512.0,826.5 L 2513.0,826.5 L 2513.5,827.0 L 2514.0,827.5 L 2514.5,828.0 L 2515.0,828.5 L 2515.5,829.0 L 2516.0,829.5 L 2517.0,829.5 L 2517.5,830.0 L 2518.0,830.5 L 2518.5,831.0 L 2519.0,831.5 L 2519.5,832.0 L 2520.0,832.5 L 2520.5,833.0 L 2521.0,833.5 L 2521.5,834.0 L 2522.0,834.5 L 2522.5,835.0 L 2523.0,835.5 L 2523.5,836.0 L 2524.0,836.5 L 2524.5,837.0 L 2525.0,837.5 L 2525.5,838.0 L 2525.5,839.0 L 2525.5,840.0 L 2526.0,840.5 L 2526.5,841.0 L 2526.5,842.0 L 2527.0,842.5 L 2527.5,843.0 L 2528.0,843.5 L 2528.5,844.0 L 2529.0,844.5 L 2529.5,845.0 L 2530.0,845.5 L 2530.5,846.0 L 2531.0,846.5 L 2531.5,847.0 L 2532.0,847.5 L 2532.5,848.0 L 2533.0,848.5 L 2533.5,849.0 L 2534.0,849.5 L 2534.5,850.0 L 2535.0,850.5 L 2535.5,851.0 L 2536.0,851.5 L 2536.5,852.0 L 2537.0,852.5 L 2537.5,853.0 L 2538.0,853.5 L 2538.5,854.0 L 2539.0,854.5 L 2539.5,855.0 L 2540.0,855.5 L 2540.5,856.0 L 2541.0,856.5 L 2541.5,857.0 L 2541.5,858.0 L 2541.0,858.5 L 2540.5,859.0 L 2540.0,859.5 L 2539.5,860.0 L 2540.0,860.5 L 2540.5,861.0 L 2540.5,862.0 L 2540.5,863.0 L 2540.0,863.5 L 2539.5,864.0 L 2539.5,865.0 L 2539.0,865.5 L 2538.5,866.0 L 2538.5,867.0 L 2538.5,868.0 L 2538.0,868.5 L 2537.5,869.0 L 2537.5,870.0 L 2537.5,871.0 L 2537.0,871.5 L 2536.5,872.0 L 2536.5,873.0 L 2536.5,874.0 L 2536.0,874.5 L 2535.5,875.0 L 2535.5,876.0 L 2535.5,877.0 L 2535.0,877.5 L 2534.5,878.0 L 2534.5,879.0 L 2534.0,879.5 L 2533.5,880.0 L 2534.0,880.5 L 2534.5,881.0 L 2534.5,882.0 L 2534.5,883.0 L 2534.5,884.0 L 2534.0,884.5 L 2533.5,885.0 L 2533.5,886.0 L 2533.5,887.0 L 2533.5,888.0 L 2533.5,889.0 L 2534.0,889.5 L 2534.5,890.0 L 2534.0,890.5 L 2533.5,891.0 L 2533.5,892.0 L 2534.0,892.5 L 2534.5,893.0 L 2534.5,894.0 L 2534.5,895.0 L 2534.5,896.0 L 2534.5,897.0 L 2534.5,898.0 L 2534.5,899.0 L 2534.5,900.0 L 2534.5,901.0 L 2534.5,902.0 L 2534.0,902.5 L 2533.5,903.0 L 2533.0,903.5 L 2532.5,904.0 L 2532.0,904.5 L 2531.5,905.0 L 2531.0,905.5 L 2530.5,906.0 L 2530.0,906.5 L 2529.5,907.0 L 2529.0,907.5 L 2528.5,908.0 L 2528.0,908.5 L 2527.5,909.0 L 2527.0,909.5 L 2526.5,910.0 L 2526.0,910.5 Z" />
  <path id="antistaria-e53730" data-owner="206296798724227082" fill="hsla(322,65%,52%,0.55)" d="M 2435.0,855.5 L 2434.0,855.5 L 2433.0,855.5 L 2432.0,855.5 L 2431.0,855.5 L 2430.0,855.5 L 2429.5,855.0 L 2429.0,854.5 L 2428.5,854.0 L 2428.0,853.5 L 2427.5,853.0 L 2427.0,852.5 L 2426.0,852.5 L 2425.5,852.0 L 2425.0,851.5 L 2424.5,851.0 L 2424.0,850.5 L 2423.5,850.0 L 2423.0,849.5 L 2422.5,849.0 L 2422.5,848.0 L 2422.0,847.5 L 2421.5,847.0 L 2421.5,846.0 L 2421.5,845.0 L 2422.0,844.5 L 2422.5,844.0 L 2423.0,843.5 L 2423.5,843.0 L 2424.0,842.5 L 2424.5,842.0 L 2424.5,841.0 L 2425.0,840.5 L 2425.5,840.0 L 2426.0,839.5 L 2427.0,839.5 L 2427.5,839.0 L 2428.0,838.5 L 2428.5,838.0 L 2429.0,837.5 L 2429.5,837.0 L 2430.0,836.5 L 2430.5,836.0 L 2431.0,835.5 L 2432.0,835.5 L 2432.5,835.0 L 2433.0,834.5 L 2433.5,834.0 L 2433.5,833.0 L 2433.5,832.0 L 2433.5,831.0 L 2433.5,830.0 L 2433.5,829.0 L 2433.5,828.0 L 2433.5,827.0 L 2433.5,826.0 L 2433.5,825.0 L 2433.5,824.0 L 2433.0,823.5 L 2432.5,823.0 L 2432.0,822.5 L 2431.0,822.5 L 2430.5,822.0 L 2430.0,821.5 L 2429.5,821.0 L 2429.5,820.0 L 2429.0,819.5 L 2428.5,819.0 L 2428.0,818.5 L 2427.5,818.0 L 2427.5,817.0 L 2427.0,816.5 L 2426.5,816.0 L 2426.0,815.5 L 2425.5,815.0 L 2425.0,814.5 L 2424.5,814.0 L 2424.0,813.5 L 2423.5,813.0 L 2423.5,812.0 L 2423.0,811.5 L 2422.5,811.0 L 2422.0,810.5 L 2421.0,810.5 L 2420.5,810.0 L 2420.0,809.5 L 2419.0,809.5 L 2418.0,809.5 L 2417.0,809.5 L 2416.5,809.0 L 2416.5,808.0 L 2416.5,807.0 L 2417.0,806.5 L 2417.5,806.0 L 2418.0,805.5 L 2418.5,805.0 L 2419.0,804.5 L 2419.5,804.0 L 2420.0,803.5 L 2420.5,803.0 L 2421.0,802.5 L 2421.5,802.0 L 2422.0,801.5 L 2422.5,801.0 L 2423.0,800.5 L 2423.5,800.0 L 2424.0,799.5 L 2424.5,799.0 L 2425.0,798.5 L 2425.5,798.0 L 2426.0,797.5 L 2426.5,797.0 L 2427.0,796.5 L 2427.5,796.0 L 2428.0,795.5 L 2428.5,795.0 L 2429.0,794.5 L 2429.5,794.0 L 2430.0,793.5 L 2430.5,793.0 L 2431.0,792.5 L 2431.5,792.0 L 2432.0,791.5 L 2432.5,791.0 L 2433.0,790.5 L 2433.5,790.0 L 2434.0,789.5 L 2434.5,789.0 L 2435.0,788.5 L 2435.5,788.0 L 2436.0,787.5 L 2436.5,787.0 L 2437.0,786.5 L 2437.5,786.0 L 2438.0,785.5 L 2438.5,785.0 L 2439.0,784.5 L 2439.5,784.0 L 2440.0,783.5 L 2440.5,783.0 L 2441.0,782.5 L 2441.5,782.0 L 2442.0,781.5 L 2442.5,781.0 L 2443.0,780.5 L 2443.5,780.0 L 2444.0,779.5 L 2444.5,779.0 L 2445.0,778.5 L 2445.5,778.0 L 2446.0,777.5 L 2446.5,777.0 L 2447.0,776.5 L 2447.5,776.0 L 2448.0,775.5 L 2448.5,775.0 L 2449.0,774.5 L 2449.5,774.0 L 2450.0,773.5 L 2450.5,773.0 L 2451.0,772.5 L 2451.5,772.0 L 2451.5,771.0 L 2451.5,770.0 L 2451.5,769.0 L 2451.5,768.0 L 2451.5,767.0 L 2451.5,766.0 L 2451.5,765.0 L 2451.5,764.0 L 2451.5,763.0 L 2451.5,762.0 L 2451.5,761.0 L 2451.5,760.0 L 2451.5,759.0 L 2452.0,758.5 L 2452.5,758.0 L 2453.0,757.5 L 2453.5,757.0 L 2454.0,756.5 L 2454.5,756.0 L 2455.0,755.5 L 2455.5,755.0 L 2455.5,754.0 L 2456.0,753.5 L 2456.5,753.0 L 2457.0,752.5 L 2457.5,752.0 L 2457.5,751.0 L 2458.0,750.5 L 2458.5,750.0 L 2458.5,749.0 L 2459.0,748.5 L 2459.5,748.0 L 2459.5,747.0 L 2460.0,746.5 L 2460.5,746.0 L 2460.5,745.0 L 2460.5,744.0 L 2460.5,743.0 L 2460.5,742.0 L 2460.5,741.0 L 2460.5,740.0 L 2460.5,739.0 L 2460.5,738.0 L 2461.0,737.5 L 2461.5,737.0 L 2461.5,736.0 L 2462.0,735.5 L 2462.5,735.0 L 2463.0,734.5 L 2463.5,734.0 L 2464.0,733.5 L 2464.5,734.0 L 2465.0,734.5 L 2466.0,734.5 L 2467.0,734.5 L 2467.5,735.0 L 2468.0,735.5 L 2468.5,736.0 L 2469.0,736.5 L 2469.5,737.0 L 2470.0,737.5 L 2470.5,738.0 L 2471.0,738.5 L 2471.5,739.0 L 2472.0,739.5 L 2472.5,740.0 L 2473.0,740.5 L 2473.5,741.0 L 2474.0,741.5 L 2474.5,742.0 L 2475.0,742.5 L 2475.5,743.0 L 2476.0,743.5 L 2476.5,744.0 L 2477.0,744.5 L 2477.5,745.0 L 2478.0,745.5 L 2478.5,746.0 L 2479.0,746.5 L 2479.5,747.0 L 2480.0,747.5 L 2480.5,748.0 L 2481.0,748.5 L 2481.5,749.0 L 2482.0,749.5 L 2482.5,750.0 L 2483.0,750.5 L 2483.5,751.0 L 2484.0,751.5 L 2484.5,752.0 L 2485.0,752.5 L 2485.5,753.0 L 2486.0,753.5 L 2486.5,754.0 L 2487.0,754.5 L 2487.5,755.0 L 2488.0,755.5 L 2488.5,756.0 L 2489.0,756.5 L 2489.5,757.0 L 2490.0,757.5 L 2490.5,758.0 L 2491.0,758.5 L 2491.5,759.0 L 2492.0,759.5 L 2492.5,760.0 L 2493.0,760.5 L 2493.5,761.0 L 2494.0,761.5 L 2494.5,762.0 L 2495.0,762.5 L 2495.5,763.0 L 2496.0,763.5 L 2496.5,764.0 L 2497.0,764.5 L 2497.5,765.0 L 2498.0,765.5 L 2498.5,766.0 L 2499.0,766.5 L 2499.5,767.0 L 2500.0,767.5 L 2500.5,768.0 L 2501.0,768.5 L 2501.5,769.0 L 2502.0,769.5 L 2502.5,770.0 L 2503.0,770.5 L 2503.5,771.0 L 2504.0,771.5 L 2504.5,772.0 L 2505.0,772.5 L 2505.5,773.0 L 2506.0,773.5 L 2506.5,774.0 L 2507.0,774.5 L 2507.5,775.0 L 2508.0,775.5 L 2508.5,776.0 L 2509.0,776.5 L 2509.5,777.0 L 2510.0,777.5 L 2510.5,778.0 L 2511.0,778.5 L 2511.5,779.0 L 2512.0,779.5 L 2512.5,780.0 L 2513.0,780.5 L 2513.5,781.0 L 2514.0,781.5 L 2514.5,782.0 L 2515.0,782.5 L 2515.5,783.0 L 2516.0,783.5 L 2516.5,784.0 L 2517.0,784.5 L 2517.5,785.0 L 2518.0,785.5 L 2518.5,786.0 L 2519.0,786.5 L 2519.5,787.0 L 2519.0,787.5 L 2518.5,788.0 L 2518.0,788.5 L 2517.5,789.0 L 2517.0,789.5 L 2516.5,790.0 L 2516.0,790.5 L 2515.5,791.0 L 2515.0,791.5 L 2514.5,792.0 L 2514.0,792.5 L 2513.5,793.0 L 2513.0,793.5 L 2512.5,794.0 L 2512.0,794.5 L 2511.5,795.0 L 2511.0,795.5 L 2510.5,796.0 L 2510.0,796.5 L 2509.5,797.0 L 2509.0,797.5 L 2508.5,798.0 L 2508.0,798.5 L 2507.5,799.0 L 2507.0,799.5 L 2506.5,799.0 L 2506.0,798.5 L 2505.0,798.5 L 2504.5,798.0 L 2504.0,797.5 L 2503.5,798.0 L 2503.0,798.5 L 2502.5,798.0 L 2502.0,797.5 L 2501.5,797.0 L 2501.0,796.5 L 2500.0,796.5 L 2499.5,796.0 L 2499.0,795.5 L 2498.5,796.0 L 2498.0,796.5 L 2497.0,796.5 L 2496.5,797.0 L 2496.0,797.5 L 2495.5,798.0 L 2495.5,799.0 L 2496.0,799.5 L 2496.5,800.0 L 2496.5,801.0 L 2497.0,801.5 L 2497.5,802.0 L 2497.5,803.0 L 2497.5,804.0 L 2498.0,804.5 L 2498.5,805.0 L 2498.5,806.0 L 2498.5,807.0 L 2498.5,808.0 L 2498.5,809.0 L 2498.5,810.0 L 2498.5,811.0 L 2498.5,812.0 L 2499.0,812.5 L 2499.5,813.0 L 2500.0,813.5 L 2500.5,814.0 L 2500.5,815.0 L 2501.0,815.5 L 2501.5,816.0 L 2501.5,817.0 L 2501.5,818.0 L 2502.0,818.5 L 2502.5,819.0 L 2502.5,820.0 L 2502.5,821.0 L 2502.0,821.5 L 2501.0,821.5 L 2500.0,821.5 L 2499.5,822.0 L 2499.0,822.5 L 2498.0,822.5 L 2497.0,822.5 L 2496.0,822.5 L 2495.0,822.5 L 2494.0,822.5 L 2493.0,822.5 L 2492.5,823.0 L 2492.0,823.5 L 2491.5,824.0 L 2491.0,824.5 L 2490.5,825.0 L 2490.0,825.5 L 2489.5,826.0 L 2489.0,826.5 L 2488.5,827.0 L 2488.0,827.5 L 2487.5,828.0 L 2487.0,828.5 L 2486.5,829.0 L 2486.0,829.5 L 2485.5,830.0 L 2485.0,830.5 L 2484.5,831.0 L 2484.0,831.5 L 2483.5,832.0 L 2483.0,832.5 L 2482.5,833.0 L 2482.0,833.5 L 2481.5,834.0 L 2481.0,834.5 L 2480.5,835.0 L 2480.0,835.5 L 2479.5,836.0 L 2479.0,836.5 L 2478.5,837.0 L 2478.0,837.5 L 2477.5,838.0 L 2477.0,838.5 L 2476.5,839.0 L 2476.0,839.5 L 2475.5,840.0 L 2475.0,840.5 L 2474.5,841.0 L 2474.0,841.5 L 2473.5,842.0 L 2473.0,842.5 L 2472.5,843.0 L 2472.0,843.5 L 2471.5,844.0 L 2471.0,844.5 L 2470.5,845.0 L 2470.0,845.5 L 2469.5,846.0 L 2469.0,846.5 L 2468.5,847.0 L 2468.0,847.5 L 2467.5,848.0 L 2467.0,848.5 L 2466.5,849.0 L 2466.0,849.5 L 2465.5,850.0 L 2465.0,850.5 L 2464.5,851.0 L 2464.0,851.5 L 2463.5,852.0 L 2463.0,852.5 L 2462.5,853.0 L 2462.0,853.5 L 2461.5,854.0 L 2461.0,854.5 L 2460.0,854.5 L 2459.0,854.5 L 2458.0,854.5 L 2457.0,854.5 L 2456.0,854.5 L 2455.0,854.5 L 2454.0,854.5 L 2453.0,854.5 L 2452.0,854.5 L 2451.0,854.5 L 2450.0,854.5 L 2449.0,854.5 L 2448.0,854.5 L 2447.0,854.5 L 2446.0,854.5 L 2445.0,854.5 L 2444.0,854.5 L 2443.0,854.5 L 2442.0,854.5 L 2441.0,854.5 L 2440.0,854.5 L 2439.0,854.5 L 2438.0,854.5 L 2437.0,854.5 L 2436.0,854.5 L 2435.5,855.0 L 2435.0,855.5 Z" />
  <path id="startanga-2c7617" data-owner="206296798724227082" fill="hsla(144,65%,52%,0.55)" d="M 2424.0,1148.5 L 2423.5,1148.0 L 2423.0,1147.5 L 2422.5,1147.0 L 2422.0,1146.5 L 2421.5,1146.0 L 2421.0,1145.5 L 2420.5,1145.0 L 2420.0,1144.5 L 2419.5,1144.0 L 2419.0,1143.5 L 2418.5,1143.0 L 2418.0,1142.5 L 2417.5,1142.0 L 2417.0,1141.5 L 2416.5,1141.0 L 2416.0,1140.5 L 2415.5,1140.0 L 2415.0,1139.5 L 2414.5,1139.0 L 2414.0,1138.5 L 2413.5,1138.0 L 2413.0,1137.5 L 2412.5,1137.0 L 2412.0,1136.5 L 2411.5,1136.0 L 2411.0,1135.5 L 2410.5,1135.0 L 2410.0,1134.5 L 2409.5,1134.0 L 2409.0,1133.5 L 2408.5,1133.0 L 2408.0,1132.5 L 2407.5,1132.0 L 2407.0,1131.5 L 2406.5,1131.0 L 2406.0,1130.5 L 2405.5,1130.0 L 2405.0,1129.5 L 2404.5,1129.0 L 2404.0,1128.5 L 2403.5,1128.0 L 2403.0,1127.5 L 2402.5,1127.0 L 2402.0,1126.5 L 2401.5,1126.0 L 2401.0,1125.5 L 2400.5,1125.0 L 2400.0,1124.5 L 2399.5,1124.0 L 2399.0,1123.5 L 2398.5,1123.0 L 2398.0,1122.5 L 2397.5,1122.0 L 2397.0,1121.5 L 2396.5,1121.0 L 2396.0,1120.5 L 2395.5,1120.0 L 2395.0,1119.5 L 2394.5,1119.0 L 2394.0,1118.5 L 2393.5,1118.0 L 2393.0,1117.5 L 2392.5,1117.0 L 2392.0,1116.5 L 2391.5,1116.0 L 2391.0,1115.5 L 2390.5,1115.0 L 2390.0,1114.5 L 2389.5,1114.0 L 2389.0,1113.5 L 2388.5,1113.0 L 2388.0,1112.5 L 2387.5,1112.0 L 2387.0,1111.5 L 2386.5,1111.0 L 2386.0,1110.5 L 2385.5,1110.0 L 2385.0,1109.5 L 2384.5,1109.0 L 2384.0,1108.5 L 2383.5,1108.0 L 2383.0,1107.5 L 2382.5,1107.0 L 2382.0,1106.5 L 2381.5,1106.0 L 2381.0,1105.5 L 2380.5,1105.0 L 2380.0,1104.5 L 2379.5,1104.0 L 2379.0,1103.5 L 2378.5,1103.0 L 2378.0,1102.5 L 2377.5,1102.0 L 2377.0,1101.5 L 2376.5,1101.0 L 2376.0,1100.5 L 2375.5,1100.0 L 2375.0,1099.5 L 2374.5,1099.0 L 2374.0,1098.5 L 2373.5,1098.0 L 2373.0,1097.5 L 2372.5,1097.0 L 2372.0,1096.5 L 2371.5,1096.0 L 2371.0,1095.5 L 2370.5,1095.0 L 2370.0,1094.5 L 2369.5,1094.0 L 2369.0,1093.5 L 2368.5,1093.0 L 2368.0,1092.5 L 2367.5,1092.0 L 2367.0,1091.5 L 2366.5,1091.0 L 2366.0,1090.5 L 2365.5,1090.0 L 2365.0,1089.5 L 2364.5,1089.0 L 2364.0,1088.5 L 2363.5,1088.0 L 2363.0,1087.5 L 2362.5,1087.0 L 2362.0,1086.5 L 2361.5,1086.0 L 2361.0,1085.5 L 2360.5,1085.0 L 2360.0,1084.5 L 2359.5,1084.0 L 2360.0,1083.5 L 2360.5,1083.0 L 2360.5,1082.0 L 2360.0,1081.5 L 2359.5,1081.0 L 2359.5,1080.0 L 2359.5,1079.0 L 2359.0,1078.5 L 2358.5,1078.0 L 2359.0,1077.5 L 2359.5,1077.0 L 2359.5,1076.0 L 2359.5,1075.0 L 2359.5,1074.0 L 2359.0,1073.5 L 2358.5,1073.0 L 2358.5,1072.0 L 2359.0,1071.5 L 2359.5,1071.0 L 2359.0,1070.5 L 2358.5,1070.0 L 2359.0,1069.5 L 2359.5,1069.0 L 2360.0,1068.5 L 2360.5,1068.0 L 2360.5,1067.0 L 2361.0,1066.5 L 2361.5,1066.0 L 2362.0,1065.5 L 2362.5,1065.0 L 2362.5,1064.0 L 2363.0,1063.5 L 2363.5,1063.0 L 2364.0,1062.5 L 2364.5,1062.0 L 2365.0,1061.5 L 2365.5,1061.0 L 2366.0,1060.5 L 2366.5,1060.0 L 2367.0,1059.5 L 2367.5,1059.0 L 2368.0,1058.5 L 2368.5,1058.0 L 2368.5,1057.0 L 2369.0,1056.5 L 2369.5,1056.0 L 2370.0,1055.5 L 2370.5,1055.0 L 2371.0,1054.5 L 2371.5,1054.0 L 2371.5,1053.0 L 2372.0,1052.5 L 2372.5,1052.0 L 2372.5,1051.0 L 2372.5,1050.0 L 2372.5,1049.0 L 2373.0,1048.5 L 2373.5,1048.0 L 2373.5,1047.0 L 2373.5,1046.0 L 2374.0,1045.5 L 2374.5,1045.0 L 2374.5,1044.0 L 2374.0,1043.5 L 2373.5,1043.0 L 2374.0,1042.5 L 2374.5,1042.0 L 2374.0,1041.5 L 2373.5,1041.0 L 2374.0,1040.5 L 2374.5,1040.0 L 2374.0,1039.5 L 2373.5,1039.0 L 2373.5,1038.0 L 2374.0,1037.5 L 2374.5,1037.0 L 2375.0,1036.5 L 2375.5,1036.0 L 2376.0,1035.5 L 2376.5,1035.0 L 2377.0,1034.5 L 2377.5,1034.0 L 2378.0,1033.5 L 2378.5,1033.0 L 2379.0,1032.5 L 2379.5,1032.0 L 2380.0,1031.5 L 2380.5,1031.0 L 2381.0,1030.5 L 2381.5,1030.0 L 2382.0,1029.5 L 2382.5,1029.0 L 2383.0,1028.5 L 2383.5,1028.0 L 2384.0,1027.5 L 2384.5,1027.0 L 2385.0,1026.5 L 2385.5,1026.0 L 2386.0,1025.5 L 2386.5,1025.0 L 2387.0,1024.5 L 2387.5,1024.0 L 2388.0,1023.5 L 2388.5,1023.0 L 2389.0,1022.5 L 2389.5,1022.0 L 2390.0,1021.5 L 2390.5,1021.0 L 2391.0,1020.5 L 2391.5,1020.0 L 2392.0,1019.5 L 2392.5,1019.0 L 2393.0,1018.5 L 2393.5,1018.0 L 2394.0,1017.5 L 2394.5,1017.0 L 2395.0,1016.5 L 2395.5,1016.0 L 2396.0,1015.5 L 2396.5,1015.0 L 2397.0,1014.5 L 2397.5,1014.0 L 2398.0,1013.5 L 2398.5,1013.0 L 2399.0,1012.5 L 2399.5,1012.0 L 2400.0,1011.5 L 2400.5,1011.0 L 2401.0,1010.5 L 2401.5,1010.0 L 2402.0,1009.5 L 2402.5,1009.0 L 2403.0,1008.5 L 2403.5,1008.0 L 2404.0,1007.5 L 2404.5,1007.0 L 2405.0,1006.5 L 2405.5,1006.0 L 2406.0,1005.5 L 2406.5,1005.0 L 2407.0,1004.5 L 2407.5,1004.0 L 2408.0,1003.5 L 2408.5,1003.0 L 2409.0,1002.5 L 2409.5,1002.0 L 2410.0,1001.5 L 2410.5,1001.0 L 2411.0,1000.5 L 2411.5,1000.0 L 2412.0,999.5 L 2412.5,999.0 L 2413.0,998.5 L 2413.5,998.0 L 2414.0,997.5 L 2414.5,997.0 L 2415.0,996.5 L 2415.5,996.0 L 2416.0,995.5 L 2416.5,995.0 L 2417.0,994.5 L 2417.5,994.0 L 2418.0,993.5 L 2418.5,993.0 L 2419.0,992.5 L 2419.5,992.0 L 2420.0,991.5 L 2420.5,991.0 L 2421.0,990.5 L 2421.5,990.0 L 2422.0,989.5 L 2422.5,989.0 L 2423.0,988.5 L 2423.5,988.0 L 2424.0,987.5 L 2424.5,988.0 L 2425.0,988.5 L 2425.5,989.0 L 2426.0,989.5 L 2426.5,990.0 L 2427.0,990.5 L 2427.5,991.0 L 2428.0,991.5 L 2428.5,992.0 L 2429.0,992.5 L 2429.5,993.0 L 2430.0,993.5 L 2430.5,994.0 L 2431.0,994.5 L 2431.5,995.0 L 2432.0,995.5 L 2432.5,996.0 L 2433.0,996.5 L 2433.5,997.0 L 2434.0,997.5 L 2434.5,998.0 L 2435.0,998.5 L 2435.5,999.0 L 2436.0,999.5 L 2436.5,1000.0 L 2437.0,1000.5 L 2437.5,1001.0 L 2438.0,1001.5 L 2438.5,1002.0 L 2439.0,1002.5 L 2439.5,1003.0 L 2440.0,1003.5 L 2440.5,1004.0 L 2441.0,1004.5 L 2441.5,1005.0 L 2442.0,1005.5 L 2442.5,1006.0 L 2443.0,1006.5 L 2443.5,1007.0 L 2444.0,1007.5 L 2444.5,1008.0 L 2445.0,1008.5 L 2445.5,1009.0 L 2446.0,1009.5 L 2446.5,1010.0 L 2447.0,1010.5 L 2447.5,1011.0 L 2448.0,1011.5 L 2448.5,1012.0 L 2449.0,1012.5 L 2449.5,1013.0 L 2450.0,1013.5 L 2450.5,1014.0 L 2451.0,1014.5 L 2451.5,1015.0 L 2452.0,1015.5 L 2452.5,1016.0 L 2453.0,1016.5 L 2453.5,1017.0 L 2454.0,1017.5 L 2454.5,1018.0 L 2455.0,1018.5 L 2455.5,1019.0 L 2456.0,1019.5 L 2456.5,1020.0 L 2457.0,1020.5 L 2457.5,1021.0 L 2458.0,1021.5 L 2458.5,1022.0 L 2459.0,1022.5 L 2459.5,1023.0 L 2460.0,1023.5 L 2460.5,1024.0 L 2461.0,1024.5 L 2461.5,1025.0 L 2462.0,1025.5 L 2462.5,1026.0 L 2463.0,1026.5 L 2463.5,1027.0 L 2463.5,1028.0 L 2463.5,1029.0 L 2463.0,1029.5 L 2462.5,1030.0 L 2462.5,1031.0 L 2462.0,1031.5 L 2461.5,1032.0 L 2461.0,1032.5 L 2460.5,1033.0 L 2460.5,1034.0 L 2460.5,1035.0 L 2460.5,1036.0 L 2460.0,1036.5 L 2459.0,1036.5 L 2458.5,1037.0 L 2458.5,1038.0 L 2458.5,1039.0 L 2458.0,1039.5 L 2457.0,1039.5 L 2456.5,1040.0 L 2456.5,1041.0 L 2456.0,1041.5 L 2455.5,1042.0 L 2455.5,1043.0 L 2455.0,1043.5 L 2454.0,1043.5 L 2453.0,1043.5 L 2452.0,1043.5 L 2451.0,1043.5 L 2450.5,1043.0 L 2450.0,1042.5 L 2449.0,1042.5 L 2448.0,1042.5 L 2447.0,1042.5 L 2446.0,1042.5 L 2445.0,1042.5 L 2444.0,1042.5 L 2443.0,1042.5 L 2442.5,1043.0 L 2442.0,1043.5 L 2441.5,1044.0 L 2441.5,1045.0 L 2442.0,1045.5 L 2442.5,1046.0 L 2443.0,1046.5 L 2444.0,1046.5 L 2444.5,1047.0 L 2445.0,1047.5 L 2445.5,1048.0 L 2446.0,1048.5 L 2446.5,1049.0 L 2446.5,1050.0 L 2447.0,1050.5 L 2447.5,1051.0 L 2448.0,1051.5 L 2448.5,1052.0 L 2449.0,1052.5 L 2450.0,1052.5 L 2450.5,1053.0 L 2451.0,1053.5 L 2452.0,1053.5 L 2452.5,1054.0 L 2453.0,1054.5 L 2453.5,1055.0 L 2454.0,1055.5 L 2454.5,1056.0 L 2455.0,1056.5 L 2455.5,1057.0 L 2455.5,1058.0 L 2455.5,1059.0 L 2456.0,1059.5 L 2457.0,1059.5 L 2457.5,1060.0 L 2458.0,1060.5 L 2459.0,1060.5 L 2460.0,1060.5 L 2460.5,1061.0 L 2461.0,1061.5 L 2462.0,1061.5 L 2463.0,1061.5 L 2464.0,1061.5 L 2465.0,1061.5 L 2466.0,1061.5 L 2467.0,1061.5 L 2468.0,1061.5 L 2469.0,1061.5 L 2470.0,1061.5 L 2471.0,1061.5 L 2472.0,1061.5 L 2472.5,1062.0 L 2473.0,1062.5 L 2474.0,1062.5 L 2474.5,1063.0 L 2475.0,1063.5 L 2476.0,1063.5 L 2476.5,1064.0 L 2477.0,1064.5 L 2477.5,1065.0 L 2478.0,1065.5 L 2479.0,1065.5 L 2479.5,1066.0 L 2480.0,1066.5 L 2480.5,1067.0 L 2481.0,1067.5 L 2481.5,1068.0 L 2482.0,1068.5 L 2482.5,1069.0 L 2482.5,1070.0 L 2483.0,1070.5 L 2483.5,1071.0 L 2484.0,1071.5 L 2484.5,1072.0 L 2485.0,1072.5 L 2485.5,1073.0 L 2486.0,1073.5 L 2486.5,1074.0 L 2487.0,1074.5 L 2488.0,1074.5 L 2488.5,1075.0 L 2489.0,1075.5 L 2489.5,1076.0 L 2490.0,1076.5 L 2490.5,1077.0 L 2490.5,1078.0 L 2490.5,1079.0 L 2490.5,1080.0 L 2490.5,1081.0 L 2490.0,1081.5 L 2489.5,1082.0 L 2489.0,1082.5 L 2488.5,1083.0 L 2488.0,1083.5 L 2487.5,1084.0 L 2487.0,1084.5 L 2486.5,1085.0 L 2486.5,1086.0 L 2486.0,1086.5 L 2485.5,1087.0 L 2485.0,1087.5 L 2484.5,1088.0 L 2484.0,1088.5 L 2483.5,1089.0 L 2483.0,1089.5 L 2482.5,1090.0 L 2482.0,1090.5 L 2481.5,1091.0 L 2481.0,1091.5 L 2480.5,1092.0 L 2480.0,1092.5 L 2479.5,1093.0 L 2479.0,1093.5 L 2478.5,1094.0 L 2478.0,1094.5 L 2477.5,1095.0 L 2477.0,1095.5 L 2476.5,1096.0 L 2476.0,1096.5 L 2475.5,1097.0 L 2475.0,1097.5 L 2474.5,1098.0 L 2474.0,1098.5 L 2473.5,1099.0 L 2473.0,1099.5 L 2472.5,1100.0 L 2472.0,1100.5 L 2471.5,1101.0 L 2471.0,1101.5 L 2470.5,1102.0 L 2470.0,1102.5 L 2469.5,1103.0 L 2469.0,1103.5 L 2468.5,1104.0 L 2468.0,1104.5 L 2467.5,1105.0 L 2467.0,1105.5 L 2466.5,1106.0 L 2466.0,1106.5 L 2465.5,1107.0 L 2465.0,1107.5 L 2464.5,1108.0 L 2464.0,1108.5 L 2463.5,1109.0 L 2463.0,1109.5 L 2462.5,1110.0 L 2462.0,1110.5 L 2461.5,1111.0 L 2461.0,1111.5 L 2460.5,1112.0 L 2460.0,1112.5 L 2459.5,1113.0 L 2459.0,1113.5 L 2458.5,1114.0 L 2458.0,1114.5 L 2457.5,1115.0 L 2457.0,1115.5 L 2456.5,1116.0 L 2456.0,1116.5 L 2455.5,1117.0 L 2455.0,1117.5 L 2454.5,1118.0 L 2454.0,1118.5 L 2453.5,1119.0 L 2453.0,1119.5 L 2452.5,1120.0 L 2452.0,1120.5 L 2451.5,1121.0 L 2451.0,1121.5 L 2450.5,1122.0 L 2450.0,1122.5 L 2449.5,1123.0 L 2449.0,1123.5 L 2448.5,1124.0 L 2448.0,1124.5 L 2447.5,1125.0 L 2447.0,1125.5 L 2446.5,1126.0 L 2446.0,1126.5 L 2445.5,1127.0 L 2445.0,1127.5 L 2444.5,1128.0 L 2444.0,1128.5 L 2443.5,1129.0 L 2443.0,1129.5 L 2442.5,1130.0 L 2442.0,1130.5 L 2441.5,1131.0 L 2441.0,1131.5 L 2440.5,1132.0 L 2440.0,1132.5 L 2439.5,1133.0 L 2439.0,1133.5 L 2438.5,1134.0 L 2438.0,1134.5 L 2437.5,1135.0 L 2437.0,1135.5 L 2436.5,1136.0 L 2436.0,1136.5 L 2435.5,1137.0 L 2435.0,1137.5 L 2434.5,1138.0 L 2434.0,1138.5 L 2433.5,1139.0 L 2433.0,1139.5 L 2432.5,1140.0 L 2432.0,1140.5 L 2431.5,1141.0 L 2431.0,1141.5 L 2430.5,1142.0 L 2430.0,1142.5 L 2429.5,1143.0 L 2429.0,1143.5 L 2428.5,1144.0 L 2428.0,1144.5 L 2427.5,1145.0 L 2427.0,1145.5 L 2426.5,1146.0 L 2426.0,1146.5 L 2425.5,1147.0 L 2425.0,1147.5 L 2424.5,1148.0 L 2424.0,1148.5 Z" />
  <path id="ball-city-77738f" data-owner="206296798724227082" fill="hsla(165,65%,52%,0.55)" d="M 2275.0,864.5 L 2274.5,864.0 L 2274.0,863.5 L 2273.5,863.0 L 2273.0,862.5 L 2272.5,862.0 L 2272.0,861.5 L 2271.5,861.0 L 2271.0,860.5 L 2270.0,860.5 L 2269.5,860.0 L 2269.0,859.5 L 2268.5,859.0 L 2268.0,858.5 L 2267.5,858.0 L 2267.0,857.5 L 2266.5,857.0 L 2266.0,856.5 L 2265.5,856.0 L 2265.0,855.5 L 2264.5,855.0 L 2264.0,854.5 L 2263.5,854.0 L 2263.0,853.5 L 2262.0,853.5 L 2261.5,853.0 L 2261.0,852.5 L 2260.5,852.0 L 2260.0,851.5 L 2259.5,851.0 L 2259.0,850.5 L 2258.5,850.0 L 2258.0,849.5 L 2257.5,849.0 L 2257.0,848.5 L 2256.5,848.0 L 2256.0,847.5 L 2255.5,847.0 L 2255.0,846.5 L 2254.5,846.0 L 2254.0,845.5 L 2253.5,845.0 L 2253.0,844.5 L 2252.5,844.0 L 2252.0,843.5 L 2251.5,843.0 L 2251.0,842.5 L 2250.5,842.0 L 2250.0,841.5 L 2249.5,841.0 L 2249.0,840.5 L 2248.5,840.0 L 2248.0,839.5 L 2247.5,839.0 L 2247.0,838.5 L 2246.5,838.0 L 2246.0,837.5 L 2245.5,837.0 L 2245.0,836.5 L 2244.5,836.0 L 2244.0,835.5 L 2243.5,835.0 L 2243.0,834.5 L 2242.5,834.0 L 2242.0,833.5 L 2241.5,833.0 L 2241.0,832.5 L 2240.5,832.0 L 2240.0,831.5 L 2239.5,831.0 L 2239.0,830.5 L 2238.5,830.0 L 2238.0,829.5 L 2237.5,829.0 L 2237.0,828.5 L 2236.5,828.0 L 2236.0,827.5 L 2235.5,827.0 L 2235.0,826.5 L 2234.5,826.0 L 2234.0,825.5 L 2233.5,825.0 L 2233.0,824.5 L 2232.5,824.0 L 2232.0,823.5 L 2231.5,823.0 L 2231.5,822.0 L 2231.0,821.5 L 2230.5,821.0 L 2230.0,820.5 L 2229.5,820.0 L 2229.0,819.5 L 2228.5,819.0 L 2228.0,818.5 L 2227.5,818.0 L 2227.5,817.0 L 2227.0,816.5 L 2226.5,816.0 L 2226.0,815.5 L 2225.5,815.0 L 2225.0,814.5 L 2224.5,814.0 L 2224.5,813.0 L 2224.5,812.0 L 2225.0,811.5 L 2225.5,811.0 L 2226.0,810.5 L 2226.5,810.0 L 2227.0,809.5 L 2227.5,809.0 L 2228.0,808.5 L 2228.5,808.0 L 2229.0,807.5 L 2229.5,807.0 L 2230.0,806.5 L 2230.5,806.0 L 2231.0,805.5 L 2231.5,805.0 L 2232.0,804.5 L 2232.5,804.0 L 2233.0,803.5 L 2233.5,803.0 L 2234.0,802.5 L 2234.5,802.0 L 2235.0,801.5 L 2235.5,801.0 L 2236.0,800.5 L 2236.5,800.0 L 2237.0,799.5 L 2237.5,799.0 L 2238.0,798.5 L 2238.5,798.0 L 2239.0,797.5 L 2239.5,797.0 L 2240.0,796.5 L 2240.5,796.0 L 2241.0,795.5 L 2241.5,795.0 L 2242.0,794.5 L 2242.5,794.0 L 2243.0,793.5 L 2243.5,793.0 L 2244.0,792.5 L 2244.5,792.0 L 2245.0,791.5 L 2245.5,791.0 L 2246.0,790.5 L 2246.5,790.0 L 2247.0,789.5 L 2247.5,789.0 L 2248.0,788.5 L 2248.5,788.0 L 2249.0,787.5 L 2249.5,787.0 L 2250.0,786.5 L 2250.5,786.0 L 2251.0,785.5 L 2251.5,785.0 L 2252.0,784.5 L 2252.5,784.0 L 2253.0,783.5 L 2253.5,783.0 L 2254.0,782.5 L 2254.5,782.0 L 2255.0,781.5 L 2255.5,781.0 L 2256.0,780.5 L 2257.0,780.5 L 2257.5,780.0 L 2258.0,779.5 L 2258.5,779.0 L 2259.0,778.5 L 2260.0,778.5 L 2260.5,778.0 L 2261.0,777.5 L 2262.0,777.5 L 2262.5,777.0 L 2263.0,776.5 L 2264.0,776.5 L 2264.5,776.0 L 2265.0,775.5 L 2266.0,775.5 L 2266.5,775.0 L 2267.0,774.5 L 2268.0,774.5 L 2268.5,774.0 L 2269.0,773.5 L 2269.5,773.0 L 2270.0,772.5 L 2270.5,772.0 L 2271.0,771.5 L 2271.5,771.0 L 2272.0,770.5 L 2272.5,770.0 L 2273.0,769.5 L 2273.5,769.0 L 2274.0,768.5 L 2274.5,768.0 L 2275.0,767.5 L 2276.0,767.5 L 2277.0,767.5 L 2277.5,768.0 L 2278.0,768.5 L 2279.0,768.5 L 2280.0,768.5 L 2281.0,768.5 L 2281.5,769.0 L 2282.0,769.5 L 2283.0,769.5 L 2283.5,769.0 L 2284.0,768.5 L 2285.0,768.5 L 2286.0,768.5 L 2287.0,768.5 L 2288.0,768.5 L 2289.0,768.5 L 2290.0,768.5 L 2291.0,768.5 L 2291.5,769.0 L 2292.0,769.5 L 2293.0,769.5 L 2293.5,770.0 L 2294.0,770.5 L 2295.0,770.5 L 2295.5,771.0 L 2296.0,771.5 L 2297.0,771.5 L 2297.5,772.0 L 2298.0,772.5 L 2299.0,772.5 L 2299.5,773.0 L 2300.0,773.5 L 2301.0,773.5 L 2301.5,774.0 L 2302.0,774.5 L 2303.0,774.5 L 2303.5,775.0 L 2304.0,775.5 L 2305.0,775.5 L 2305.5,776.0 L 2306.0,776.5 L 2307.0,776.5 L 2307.5,777.0 L 2308.0,777.5 L 2309.0,777.5 L 2309.5,778.0 L 2310.0,778.5 L 2311.0,778.5 L 2311.5,779.0 L 2312.0,779.5 L 2313.0,779.5 L 2313.5,780.0 L 2314.0,780.5 L 2315.0,780.5 L 2315.5,781.0 L 2316.0,781.5 L 2316.5,782.0 L 2317.0,782.5 L 2317.5,783.0 L 2318.0,783.5 L 2319.0,783.5 L 2319.5,784.0 L 2320.0,784.5 L 2321.0,784.5 L 2321.5,785.0 L 2322.0,785.5 L 2322.5,786.0 L 2323.0,786.5 L 2323.5,787.0 L 2323.0,787.5 L 2322.0,787.5 L 2321.5,788.0 L 2321.0,788.5 L 2320.5,789.0 L 2320.0,789.5 L 2319.5,790.0 L 2319.5,791.0 L 2319.0,791.5 L 2318.0,791.5 L 2317.5,792.0 L 2317.0,792.5 L 2316.0,792.5 L 2315.5,793.0 L 2315.0,793.5 L 2314.0,793.5 L 2313.5,794.0 L 2313.0,794.5 L 2312.5,795.0 L 2312.0,795.5 L 2311.5,796.0 L 2311.0,796.5 L 2310.5,797.0 L 2310.0,797.5 L 2309.0,797.5 L 2308.0,797.5 L 2307.5,798.0 L 2307.0,798.5 L 2306.0,798.5 L 2305.0,798.5 L 2304.0,798.5 L 2303.0,798.5 L 2302.5,799.0 L 2302.0,799.5 L 2301.0,799.5 L 2300.0,799.5 L 2299.0,799.5 L 2298.5,800.0 L 2298.5,801.0 L 2298.5,802.0 L 2298.5,803.0 L 2298.5,804.0 L 2299.0,804.5 L 2299.5,805.0 L 2299.5,806.0 L 2300.0,806.5 L 2300.5,807.0 L 2301.0,807.5 L 2301.5,808.0 L 2302.0,808.5 L 2303.0,808.5 L 2303.5,809.0 L 2304.0,809.5 L 2305.0,809.5 L 2306.0,809.5 L 2306.5,810.0 L 2307.0,810.5 L 2308.0,810.5 L 2309.0,810.5 L 2310.0,810.5 L 2311.0,810.5 L 2312.0,810.5 L 2313.0,810.5 L 2314.0,810.5 L 2314.5,811.0 L 2315.0,811.5 L 2316.0,811.5 L 2317.0,811.5 L 2317.5,812.0 L 2318.0,812.5 L 2319.0,812.5 L 2320.0,812.5 L 2321.0,812.5 L 2321.5,813.0 L 2322.0,813.5 L 2323.0,813.5 L 2324.0,813.5 L 2324.5,814.0 L 2325.0,814.5 L 2326.0,814.5 L 2327.0,814.5 L 2327.5,815.0 L 2328.0,815.5 L 2329.0,815.5 L 2330.0,815.5 L 2330.5,816.0 L 2331.0,816.5 L 2332.0,816.5 L 2333.0,816.5 L 2334.0,816.5 L 2335.0,816.5 L 2336.0,816.5 L 2337.0,816.5 L 2338.0,816.5 L 2339.0,816.5 L 2339.5,817.0 L 2340.0,817.5 L 2340.5,818.0 L 2341.0,818.5 L 2342.0,818.5 L 2342.5,819.0 L 2343.0,819.5 L 2343.5,820.0 L 2344.0,820.5 L 2345.0,820.5 L 2345.5,821.0 L 2345.0,821.5 L 2344.5,822.0 L 2344.5,823.0 L 2344.5,824.0 L 2344.0,824.5 L 2343.5,825.0 L 2343.0,825.5 L 2342.5,826.0 L 2342.0,826.5 L 2341.5,827.0 L 2341.0,827.5 L 2340.5,828.0 L 2340.0,828.5 L 2339.5,829.0 L 2339.0,829.5 L 2338.5,830.0 L 2338.0,830.5 L 2337.5,831.0 L 2337.0,831.5 L 2336.5,832.0 L 2336.0,832.5 L 2335.5,833.0 L 2335.0,833.5 L 2334.5,834.0 L 2334.0,834.5 L 2333.5,835.0 L 2333.0,835.5 L 2332.5,836.0 L 2332.0,836.5 L 2331.5,837.0 L 2331.0,837.5 L 2330.5,838.0 L 2330.0,838.5 L 2329.5,839.0 L 2329.0,839.5 L 2328.5,840.0 L 2328.0,840.5 L 2327.5,841.0 L 2327.0,841.5 L 2326.5,842.0 L 2326.0,842.5 L 2325.0,842.5 L 2324.5,843.0 L 2324.0,843.5 L 2323.0,843.5 L 2322.5,844.0 L 2322.0,844.5 L 2321.0,844.5 L 2320.5,845.0 L 2320.0,845.5 L 2319.0,845.5 L 2318.5,846.0 L 2318.0,846.5 L 2317.0,846.5 L 2316.5,847.0 L 2316.0,847.5 L 2315.0,847.5 L 2314.5,848.0 L 2314.0,848.5 L 2313.0,848.5 L 2312.5,849.0 L 2312.0,849.5 L 2311.0,849.5 L 2310.5,850.0 L 2310.0,850.5 L 2309.0,850.5 L 2308.5,851.0 L 2308.0,851.5 L 2307.0,851.5 L 2306.5,852.0 L 2306.0,852.5 L 2305.0,852.5 L 2304.5,853.0 L 2304.0,853.5 L 2303.0,853.5 L 2302.5,854.0 L 2302.0,854.5 L 2301.0,854.5 L 2300.5,855.0 L 2300.0,855.5 L 2299.0,855.5 L 2298.5,856.0 L 2298.0,856.5 L 2297.0,856.5 L 2296.5,857.0 L 2296.0,857.5 L 2295.0,857.5 L 2294.5,858.0 L 2294.0,858.5 L 2293.0,858.5 L 2292.5,859.0 L 2292.0,859.5 L 2291.0,859.5 L 2290.5,860.0 L 2290.0,860.5 L 2289.0,860.5 L 2288.0,860.5 L 2287.5,861.0 L 2287.0,861.5 L 2286.0,861.5 L 2285.0,861.5 L 2284.5,862.0 L 2284.0,862.5 L 2283.0,862.5 L 2282.0,862.5 L 2281.0,862.5 L 2280.0,862.5 L 2279.5,863.0 L 2279.0,863.5 L 2278.0,863.5 L 2277.0,863.5 L 2276.0,863.5 L 2275.5,864.0 L 2275.0,864.5 Z" />
  <path id="gauoe-9756e2" data-owner="206296798724227082" fill="hsla(242,65%,52%,0.55)" d="M 964.0,1459.5 L 963.5,1459.0 L 963.0,1458.5 L 962.5,1458.0 L 962.0,1457.5 L 961.5,1457.0 L 961.0,1456.5 L 960.5,1456.0 L 960.0,1455.5 L 959.5,1455.0 L 959.0,1454.5 L 958.5,1454.0 L 958.0,1453.5 L 957.5,1453.0 L 957.0,1452.5 L 956.5,1452.0 L 956.0,1451.5 L 955.5,1451.0 L 955.0,1450.5 L 954.5,1450.0 L 954.0,1449.5 L 953.5,1449.0 L 953.0,1448.5 L 952.5,1448.0 L 952.0,1447.5 L 951.5,1447.0 L 951.0,1446.5 L 950.5,1446.0 L 950.0,1445.5 L 949.5,1445.0 L 949.0,1444.5 L 948.5,1444.0 L 948.0,1443.5 L 947.5,1443.0 L 947.0,1442.5 L 946.5,1442.0 L 946.0,1441.5 L 945.5,1441.0 L 945.0,1440.5 L 944.5,1440.0 L 944.0,1439.5 L 943.5,1439.0 L 943.0,1438.5 L 942.5,1438.0 L 942.0,1437.5 L 941.5,1437.0 L 941.0,1436.5 L 940.5,1436.0 L 940.0,1435.5 L 939.5,1435.0 L 939.0,1434.5 L 938.5,1434.0 L 938.0,1433.5 L 937.5,1433.0 L 937.0,1432.5 L 936.5,1432.0 L 936.0,1431.5 L 935.5,1431.0 L 935.0,1430.5 L 934.5,1430.0 L 934.0,1429.5 L 933.5,1429.0 L 933.0,1428.5 L 932.5,1428.0 L 932.0,1427.5 L 931.5,1427.0 L 931.0,1426.5 L 930.5,1426.0 L 930.0,1425.5 L 929.5,1425.0 L 929.0,1424.5 L 928.5,1424.0 L 928.0,1423.5 L 927.5,1423.0 L 927.0,1422.5 L 926.5,1422.0 L 926.0,1421.5 L 925.5,1421.0 L 925.0,1420.5 L 924.5,1420.0 L 924.5,1419.0 L 924.0,1418.5 L 923.5,1418.0 L 923.5,1417.0 L 923.5,1416.0 L 923.5,1415.0 L 923.5,1414.0 L 923.5,1413.0 L 923.5,1412.0 L 923.5,1411.0 L 924.0,1410.5 L 924.5,1410.0 L 924.5,1409.0 L 924.5,1408.0 L 924.5,1407.0 L 924.5,1406.0 L 924.5,1405.0 L 924.5,1404.0 L 924.5,1403.0 L 924.5,1402.0 L 924.5,1401.0 L 924.5,1400.0 L 925.0,1399.5 L 925.5,1399.0 L 925.5,1398.0 L 925.5,1397.0 L 925.5,1396.0 L 925.5,1395.0 L 925.5,1394.0 L 925.5,1393.0 L 925.5,1392.0 L 925.0,1391.5 L 924.0,1391.5 L 923.5,1391.0 L 923.0,1390.5 L 922.0,1390.5 L 921.5,1390.0 L 921.0,1389.5 L 920.0,1389.5 L 919.5,1389.0 L 919.0,1388.5 L 918.0,1388.5 L 917.5,1388.0 L 917.0,1387.5 L 916.0,1387.5 L 915.0,1387.5 L 914.5,1387.0 L 914.0,1386.5 L 913.0,1386.5 L 912.0,1386.5 L 911.5,1386.0 L 911.0,1385.5 L 910.0,1385.5 L 909.0,1385.5 L 908.0,1385.5 L 907.5,1385.0 L 907.0,1384.5 L 906.0,1384.5 L 905.0,1384.5 L 904.5,1384.0 L 904.0,1383.5 L 903.0,1383.5 L 902.5,1383.0 L 902.0,1382.5 L 901.0,1382.5 L 900.0,1382.5 L 899.5,1382.0 L 899.0,1381.5 L 898.0,1381.5 L 897.5,1381.0 L 897.0,1380.5 L 896.5,1380.0 L 896.0,1379.5 L 895.0,1379.5 L 894.0,1379.5 L 893.5,1379.0 L 893.0,1378.5 L 892.0,1378.5 L 891.5,1378.0 L 891.0,1377.5 L 890.0,1377.5 L 889.0,1377.5 L 888.5,1377.0 L 888.5,1376.0 L 888.5,1375.0 L 888.5,1374.0 L 889.0,1373.5 L 889.5,1373.0 L 890.0,1372.5 L 890.5,1372.0 L 891.0,1371.5 L 891.5,1371.0 L 892.0,1370.5 L 892.5,1370.0 L 893.0,1369.5 L 893.5,1369.0 L 894.0,1368.5 L 894.5,1368.0 L 895.0,1367.5 L 895.5,1367.0 L 896.0,1366.5 L 896.5,1366.0 L 897.0,1365.5 L 897.5,1365.0 L 898.0,1364.5 L 898.5,1364.0 L 899.0,1363.5 L 899.5,1363.0 L 900.0,1362.5 L 900.5,1362.0 L 901.0,1361.5 L 901.5,1361.0 L 902.0,1360.5 L 902.5,1360.0 L 903.0,1359.5 L 903.5,1359.0 L 904.0,1358.5 L 904.5,1358.0 L 905.0,1357.5 L 905.5,1357.0 L 906.0,1356.5 L 906.5,1356.0 L 907.0,1355.5 L 907.5,1355.0 L 908.0,1354.5 L 908.5,1354.0 L 909.0,1353.5 L 909.5,1353.0 L 910.0,1352.5 L 910.5,1352.0 L 911.0,1351.5 L 911.5,1351.0 L 912.0,1350.5 L 912.5,1350.0 L 913.0,1349.5 L 913.5,1349.0 L 914.0,1348.5 L 914.5,1348.0 L 915.0,1347.5 L 915.5,1347.0 L 916.0,1346.5 L 916.5,1346.0 L 917.0,1345.5 L 917.5,1345.0 L 918.0,1344.5 L 918.5,1344.0 L 919.0,1343.5 L 919.5,1343.0 L 920.0,1342.5 L 920.5,1342.0 L 921.0,1341.5 L 921.5,1341.0 L 922.0,1340.5 L 922.5,1340.0 L 923.0,1339.5 L 923.5,1339.0 L 924.0,1338.5 L 924.5,1338.0 L 925.0,1337.5 L 925.5,1337.0 L 926.0,1336.5 L 926.5,1336.0 L 927.0,1335.5 L 927.5,1335.0 L 928.0,1334.5 L 928.5,1334.0 L 929.0,1333.5 L 929.5,1333.0 L 930.0,1332.5 L 930.5,1332.0 L 931.0,1331.5 L 931.5,1331.0 L 932.0,1330.5 L 932.5,1330.0 L 933.0,1329.5 L 933.5,1329.0 L 934.0,1328.5 L 934.5,1328.0 L 935.0,1327.5 L 935.5,1327.0 L 936.0,1326.5 L 936.5,1326.0 L 937.0,1325.5 L 937.5,1325.0 L 938.0,1324.5 L 938.5,1324.0 L 939.0,1323.5 L 939.5,1323.0 L 940.0,1322.5 L 940.5,1322.0 L 941.0,1321.5 L 941.5,1321.0 L 942.0,1320.5 L 942.5,1320.0 L 943.0,1319.5 L 943.5,1319.0 L 944.0,1318.5 L 944.5,1318.0 L 945.0,1317.5 L 945.5,1317.0 L 946.0,1316.5 L 946.5,1316.0 L 947.0,1315.5 L 947.5,1315.0 L 948.0,1314.5 L 948.5,1314.0 L 949.0,1313.5 L 949.5,1313.0 L 950.0,1312.5 L 950.5,1312.0 L 951.0,1311.5 L 951.5,1311.0 L 952.0,1310.5 L 952.5,1310.0 L 953.0,1309.5 L 953.5,1309.0 L 954.0,1308.5 L 954.5,1308.0 L 955.0,1307.5 L 955.5,1307.0 L 956.0,1306.5 L 956.5,1306.0 L 957.0,1305.5 L 957.5,1305.0 L 958.0,1304.5 L 958.5,1304.0 L 959.0,1303.5 L 959.5,1303.0 L 960.0,1302.5 L 960.5,1302.0 L 961.0,1301.5 L 961.5,1301.0 L 962.0,1300.5 L 962.5,1300.0 L 963.0,1299.5 L 963.5,1299.0 L 964.0,1298.5 L 964.5,1299.0 L 965.0,1299.5 L 965.5,1300.0 L 966.0,1300.5 L 966.5,1301.0 L 967.0,1301.5 L 967.5,1302.0 L 968.0,1302.5 L 968.5,1303.0 L 969.0,1303.5 L 969.5,1304.0 L 970.0,1304.5 L 970.5,1305.0 L 971.0,1305.5 L 971.5,1306.0 L 972.0,1306.5 L 972.5,1307.0 L 973.0,1307.5 L 973.5,1308.0 L 974.0,1308.5 L 974.5,1309.0 L 975.0,1309.5 L 975.5,1310.0 L 976.0,1310.5 L 976.5,1311.0 L 977.0,1311.5 L 977.5,1312.0 L 978.0,1312.5 L 978.5,1313.0 L 979.0,1313.5 L 979.5,1314.0 L 980.0,1314.5 L 980.5,1315.0 L 981.0,1315.5 L 981.5,1316.0 L 982.0,1316.5 L 982.5,1317.0 L 983.0,1317.5 L 983.5,1318.0 L 984.0,1318.5 L 984.5,1319.0 L 985.0,1319.5 L 985.5,1320.0 L 986.0,1320.5 L 986.5,1321.0 L 987.0,1321.5 L 987.5,1322.0 L 988.0,1322.5 L 988.5,1323.0 L 989.0,1323.5 L 989.5,1324.0 L 990.0,1324.5 L 990.5,1325.0 L 991.0,1325.5 L 991.5,1326.0 L 992.0,1326.5 L 992.5,1327.0 L 993.0,1327.5 L 993.5,1328.0 L 994.0,1328.5 L 994.5,1329.0 L 995.0,1329.5 L 995.5,1330.0 L 996.0,1330.5 L 996.5,1331.0 L 997.0,1331.5 L 997.5,1332.0 L 998.0,1332.5 L 998.5,1333.0 L 999.0,1333.5 L 999.5,1334.0 L 1000.0,1334.5 L 1000.5,1335.0 L 1001.0,1335.5 L 1001.5,1336.0 L 1002.0,1336.5 L 1002.5,1337.0 L 1003.0,1337.5 L 1003.5,1338.0 L 1004.0,1338.5 L 1004.5,1339.0 L 1005.0,1339.5 L 1005.5,1340.0 L 1006.0,1340.5 L 1006.5,1341.0 L 1007.0,1341.5 L 1007.5,1342.0 L 1008.0,1342.5 L 1008.5,1343.0 L 1009.0,1343.5 L 1009.5,1344.0 L 1010.0,1344.5 L 1010.5,1345.0 L 1011.0,1345.5 L 1011.5,1346.0 L 1012.0,1346.5 L 1012.5,1347.0 L 1013.0,1347.5 L 1013.5,1348.0 L 1014.0,1348.5 L 1014.5,1349.0 L 1015.0,1349.5 L 1015.5,1350.0 L 1016.0,1350.5 L 1016.5,1351.0 L 1017.0,1351.5 L 1017.5,1352.0 L 1018.0,1352.5 L 1018.5,1353.0 L 1019.0,1353.5 L 1019.5,1354.0 L 1020.0,1354.5 L 1020.5,1355.0 L 1021.0,1355.5 L 1021.5,1356.0 L 1022.0,1356.5 L 1022.5,1357.0 L 1023.0,1357.5 L 1023.5,1358.0 L 1024.0,1358.5 L 1024.5,1359.0 L 1025.0,1359.5 L 1025.5,1360.0 L 1026.0,1360.5 L 1026.5,1361.0 L 1027.0,1361.5 L 1027.5,1362.0 L 1028.0,1362.5 L 1028.5,1363.0 L 1029.0,1363.5 L 1029.5,1364.0 L 1030.0,1364.5 L 1030.5,1365.0 L 1031.0,1365.5 L 1031.5,1366.0 L 1032.0,1366.5 L 1032.5,1367.0 L 1033.0,1367.5 L 1033.5,1368.0 L 1034.0,1368.5 L 1034.5,1369.0 L 1035.0,1369.5 L 1035.5,1370.0 L 1036.0,1370.5 L 1036.5,1371.0 L 1037.0,1371.5 L 1037.5,1372.0 L 1038.0,1372.5 L 1038.5,1373.0 L 1039.0,1373.5 L 1039.5,1374.0 L 1040.0,1374.5 L 1040.5,1375.0 L 1041.0,1375.5 L 1041.5,1376.0 L 1042.0,1376.5 L 1042.5,1377.0 L 1043.0,1377.5 L 1043.5,1378.0 L 1044.0,1378.5 L 1044.5,1379.0 L 1044.0,1379.5 L 1043.5,1380.0 L 1043.0,1380.5 L 1042.5,1381.0 L 1042.0,1381.5 L 1041.5,1382.0 L 1041.0,1382.5 L 1040.5,1383.0 L 1040.0,1383.5 L 1039.5,1384.0 L 1039.0,1384.5 L 1038.5,1385.0 L 1038.0,1385.5 L 1037.5,1386.0 L 1037.0,1386.5 L 1036.5,1387.0 L 1036.0,1387.5 L 1035.5,1388.0 L 1035.0,1388.5 L 1034.5,1389.0 L 1034.0,1389.5 L 1033.5,1390.0 L 1033.0,1390.5 L 1032.5,1391.0 L 1032.0,1391.5 L 1031.5,1392.0 L 1031.0,1392.5 L 1030.5,1393.0 L 1030.0,1393.5 L 1029.5,1394.0 L 1029.0,1394.5 L 1028.5,1395.0 L 1028.0,1395.5 L 1027.5,1396.0 L 1027.0,1396.5 L 1026.5,1397.0 L 1026.0,1397.5 L 1025.5,1398.0 L 1025.0,1398.5 L 1024.5,1399.0 L 1024.0,1399.5 L 1023.5,1400.0 L 1023.0,1400.5 L 1022.5,1401.0 L 1022.0,1401.5 L 1021.5,1402.0 L 1021.0,1402.5 L 1020.5,1403.0 L 1020.0,1403.5 L 1019.5,1404.0 L 1019.0,1404.5 L 1018.5,1405.0 L 1018.0,1405.5 L 1017.5,1406.0 L 1017.0,1406.5 L 1016.5,1407.0 L 1016.0,1407.5 L 1015.5,1408.0 L 1015.0,1408.5 L 1014.5,1409.0 L 1014.0,1409.5 L 1013.5,1410.0 L 1013.0,1410.5 L 1012.5,1411.0 L 1012.0,1411.5 L 1011.5,1412.0 L 1011.0,1412.5 L 1010.5,1413.0 L 1010.0,1413.5 L 1009.5,1414.0 L 1009.0,1414.5 L 1008.5,1415.0 L 1008.0,1415.5 L 1007.5,1416.0 L 1007.0,1416.5 L 1006.5,1417.0 L 1006.0,1417.5 L 1005.5,1418.0 L 1005.0,1418.5 L 1004.5,1419.0 L 1004.0,1419.5 L 1003.5,1420.0 L 1003.0,1420.5 L 1002.5,1421.0 L 1002.0,1421.5 L 1001.5,1422.0 L 1001.0,1422.5 L 1000.5,1423.0 L 1000.0,1423.5 L 999.5,1424.0 L 999.0,1424.5 L 998.5,1425.0 L 998.0,1425.5 L 997.5,1426.0 L 997.0,1426.5 L 996.5,1427.0 L 996.0,1427.5 L 995.5,1428.0 L 995.0,1428.5 L 994.5,1429.0 L 994.0,1429.5 L 993.5,1430.0 L 993.0,1430.5 L 992.5,1431.0 L 992.0,1431.5 L 991.5,1432.0 L 991.0,1432.5 L 990.5,1433.0 L 990.0,1433.5 L 989.5,1434.0 L 989.0,1434.5 L 988.5,1435.0 L 988.0,1435.5 L 987.5,1436.0 L 987.0,1436.5 L 986.5,1437.0 L 986.0,1437.5 L 985.5,1438.0 L 985.0,1438.5 L 984.5,1439.0 L 984.0,1439.5 L 983.5,1440.0 L 983.0,1440.5 L 982.5,1441.0 L 982.0,1441.5 L 981.5,1442.0 L 981.0,1442.5 L 980.5,1443.0 L 980.0,1443.5 L 979.5,1444.0 L 979.0,1444.5 L 978.5,1445.0 L 978.0,1445.5 L 977.5,1446.0 L 977.0,1446.5 L 976.5,1447.0 L 976.0,1447.5 L 975.5,1448.0 L 975.0,1448.5 L 974.5,1449.0 L 974.0,1449.5 L 973.5,1450.0 L 973.0,1450.5 L 972.5,1451.0 L 972.0,1451.5 L 971.5,1452.0 L 971.0,1452.5 L 970.5,1453.0 L 970.0,1453.5 L 969.5,1454.0 L 969.0,1454.5 L 968.5,1455.0 L 968.0,1455.5 L 967.5,1456.0 L 967.0,1456.5 L 966.5,1457.0 L 966.0,1457.5 L 965.5,1458.0 L 965.0,1458.5 L 964.5,1459.0 L 964.0,1459.5 Z M 964.5,1379.0 L 964.0,1378.5 L 963.5,1379.0 L 964.0,1379.5 L 964.5,1379.0 Z" />
  <path id="gauoe-5fb0a3" data-owner="206296798724227082" fill="hsla(326,65%,52%,0.55)" d="M 964.0,1379.5 L 963.5,1379.0 L 964.0,1378.5 L 964.5,1379.0 L 964.0,1379.5 Z" />
</svg>